G75*
G70*
%OFA0B0*%
%FSLAX24Y24*%
%IPPOS*%
%LPD*%
%AMOC8*
5,1,8,0,0,1.08239X$1,22.5*
%
%ADD10C,0.0000*%
D10*
X002066Y002070D02*
X002066Y009944D01*
X011909Y009944D01*
X011928Y009944D01*
X011909Y009944D01*
X011997Y009942D01*
X012085Y009936D01*
X012173Y009926D01*
X012261Y009912D01*
X012347Y009895D01*
X012433Y009873D01*
X012517Y009848D01*
X012601Y009818D01*
X012683Y009786D01*
X012763Y009749D01*
X012842Y009709D01*
X012919Y009665D01*
X012994Y009618D01*
X013066Y009568D01*
X013137Y009514D01*
X013204Y009458D01*
X013270Y009398D01*
X013332Y009336D01*
X013392Y009270D01*
X013448Y009203D01*
X013502Y009132D01*
X013552Y009060D01*
X013599Y008985D01*
X013643Y008908D01*
X013683Y008829D01*
X013720Y008749D01*
X013752Y008667D01*
X013782Y008583D01*
X013807Y008499D01*
X013829Y008413D01*
X013846Y008327D01*
X013860Y008239D01*
X013870Y008151D01*
X013876Y008063D01*
X013878Y007975D01*
X013877Y007975D02*
X013877Y004038D01*
X013878Y004038D02*
X013876Y003950D01*
X013870Y003862D01*
X013860Y003774D01*
X013846Y003686D01*
X013829Y003600D01*
X013807Y003514D01*
X013782Y003430D01*
X013752Y003346D01*
X013720Y003264D01*
X013683Y003184D01*
X013643Y003105D01*
X013599Y003028D01*
X013552Y002953D01*
X013502Y002881D01*
X013448Y002810D01*
X013392Y002743D01*
X013332Y002677D01*
X013270Y002615D01*
X013204Y002555D01*
X013137Y002499D01*
X013066Y002445D01*
X012994Y002395D01*
X012919Y002348D01*
X012842Y002304D01*
X012763Y002264D01*
X012683Y002227D01*
X012601Y002195D01*
X012517Y002165D01*
X012433Y002140D01*
X012347Y002118D01*
X012261Y002101D01*
X012173Y002087D01*
X012085Y002077D01*
X011997Y002071D01*
X011909Y002069D01*
X011909Y002070D02*
X011279Y002070D01*
X002066Y002070D01*
M02*
