G75*
G70*
%OFA0B0*%
%FSLAX24Y24*%
%IPPOS*%
%LPD*%
%AMOC8*
5,1,8,0,0,1.08239X$1,22.5*
%
%ADD10C,0.0020*%
%ADD11R,0.0118X0.0059*%
%ADD12R,0.0118X0.0118*%
%ADD13C,0.0039*%
%ADD14C,0.0050*%
%ADD15C,0.0010*%
%ADD16C,0.0020*%
%ADD17C,0.0030*%
%ADD18C,0.0040*%
%ADD19C,0.0160*%
%ADD20R,0.0197X0.0551*%
%ADD21R,0.0256X0.0394*%
D10*
X002305Y002885D02*
X002305Y003105D01*
X002416Y003105D01*
X002452Y003069D01*
X002452Y002995D01*
X002416Y002959D01*
X002305Y002959D01*
X002526Y002885D02*
X002673Y003032D01*
X002673Y003069D01*
X002636Y003105D01*
X002563Y003105D01*
X002526Y003069D01*
X002526Y002885D02*
X002673Y002885D01*
X003305Y002885D02*
X003305Y003105D01*
X003416Y003105D01*
X003452Y003069D01*
X003452Y002995D01*
X003416Y002959D01*
X003305Y002959D01*
X003526Y002995D02*
X003673Y002995D01*
X003636Y002885D02*
X003636Y003105D01*
X003526Y002995D01*
X004305Y002959D02*
X004416Y002959D01*
X004452Y002995D01*
X004452Y003069D01*
X004416Y003105D01*
X004305Y003105D01*
X004305Y002885D01*
X004526Y002922D02*
X004563Y002885D01*
X004636Y002885D01*
X004673Y002922D01*
X004673Y002959D01*
X004636Y002995D01*
X004526Y002995D01*
X004526Y002922D01*
X004526Y002995D02*
X004600Y003069D01*
X004673Y003105D01*
X005305Y003105D02*
X005305Y002885D01*
X005305Y002959D02*
X005416Y002959D01*
X005452Y002995D01*
X005452Y003069D01*
X005416Y003105D01*
X005305Y003105D01*
X005526Y003069D02*
X005526Y003032D01*
X005563Y002995D01*
X005636Y002995D01*
X005673Y002959D01*
X005673Y002922D01*
X005636Y002885D01*
X005563Y002885D01*
X005526Y002922D01*
X005526Y002959D01*
X005563Y002995D01*
X005636Y002995D02*
X005673Y003032D01*
X005673Y003069D01*
X005636Y003105D01*
X005563Y003105D01*
X005526Y003069D01*
X006084Y003105D02*
X006084Y002885D01*
X006084Y002959D02*
X006195Y002959D01*
X006231Y002995D01*
X006231Y003069D01*
X006195Y003105D01*
X006084Y003105D01*
X006305Y003032D02*
X006379Y003105D01*
X006379Y002885D01*
X006452Y002885D02*
X006305Y002885D01*
X006526Y002922D02*
X006526Y003069D01*
X006563Y003105D01*
X006636Y003105D01*
X006673Y003069D01*
X006526Y002922D01*
X006563Y002885D01*
X006636Y002885D01*
X006673Y002922D01*
X006673Y003069D01*
X007084Y003105D02*
X007084Y002885D01*
X007084Y002959D02*
X007195Y002959D01*
X007231Y002995D01*
X007231Y003069D01*
X007195Y003105D01*
X007084Y003105D01*
X007305Y003032D02*
X007379Y003105D01*
X007379Y002885D01*
X007452Y002885D02*
X007305Y002885D01*
X007526Y002885D02*
X007673Y003032D01*
X007673Y003069D01*
X007636Y003105D01*
X007563Y003105D01*
X007526Y003069D01*
X007526Y002885D02*
X007673Y002885D01*
X008084Y002885D02*
X008084Y003105D01*
X008195Y003105D01*
X008231Y003069D01*
X008231Y002995D01*
X008195Y002959D01*
X008084Y002959D01*
X008305Y003032D02*
X008379Y003105D01*
X008379Y002885D01*
X008452Y002885D02*
X008305Y002885D01*
X008526Y002995D02*
X008636Y003105D01*
X008636Y002885D01*
X008673Y002995D02*
X008526Y002995D01*
X009084Y002959D02*
X009195Y002959D01*
X009231Y002995D01*
X009231Y003069D01*
X009195Y003105D01*
X009084Y003105D01*
X009084Y002885D01*
X009305Y002885D02*
X009452Y002885D01*
X009379Y002885D02*
X009379Y003105D01*
X009305Y003032D01*
X009526Y002995D02*
X009526Y002922D01*
X009563Y002885D01*
X009636Y002885D01*
X009673Y002922D01*
X009673Y002959D01*
X009636Y002995D01*
X009526Y002995D01*
X009600Y003069D01*
X009673Y003105D01*
X010084Y003105D02*
X010084Y002885D01*
X010084Y002959D02*
X010195Y002959D01*
X010231Y002995D01*
X010231Y003069D01*
X010195Y003105D01*
X010084Y003105D01*
X010305Y003032D02*
X010379Y003105D01*
X010379Y002885D01*
X010452Y002885D02*
X010305Y002885D01*
X010526Y002922D02*
X010526Y002959D01*
X010563Y002995D01*
X010636Y002995D01*
X010673Y002959D01*
X010673Y002922D01*
X010636Y002885D01*
X010563Y002885D01*
X010526Y002922D01*
X010563Y002995D02*
X010526Y003032D01*
X010526Y003069D01*
X010563Y003105D01*
X010636Y003105D01*
X010673Y003069D01*
X010673Y003032D01*
X010636Y002995D01*
X010526Y003885D02*
X010526Y003922D01*
X010673Y004069D01*
X010673Y004105D01*
X010526Y004105D01*
X010379Y004105D02*
X010305Y004032D01*
X010231Y004069D02*
X010231Y003995D01*
X010195Y003959D01*
X010084Y003959D01*
X010084Y003885D02*
X010084Y004105D01*
X010195Y004105D01*
X010231Y004069D01*
X010379Y004105D02*
X010379Y003885D01*
X010452Y003885D02*
X010305Y003885D01*
X009673Y003922D02*
X009636Y003885D01*
X009563Y003885D01*
X009526Y003922D01*
X009526Y003995D02*
X009600Y004032D01*
X009636Y004032D01*
X009673Y003995D01*
X009673Y003922D01*
X009526Y003995D02*
X009526Y004105D01*
X009673Y004105D01*
X009379Y004105D02*
X009379Y003885D01*
X009452Y003885D02*
X009305Y003885D01*
X009231Y003995D02*
X009195Y003959D01*
X009084Y003959D01*
X009084Y003885D02*
X009084Y004105D01*
X009195Y004105D01*
X009231Y004069D01*
X009231Y003995D01*
X009305Y004032D02*
X009379Y004105D01*
X008673Y004069D02*
X008673Y004032D01*
X008636Y003995D01*
X008673Y003959D01*
X008673Y003922D01*
X008636Y003885D01*
X008563Y003885D01*
X008526Y003922D01*
X008452Y003885D02*
X008305Y003885D01*
X008379Y003885D02*
X008379Y004105D01*
X008305Y004032D01*
X008231Y004069D02*
X008231Y003995D01*
X008195Y003959D01*
X008084Y003959D01*
X008084Y003885D02*
X008084Y004105D01*
X008195Y004105D01*
X008231Y004069D01*
X008526Y004069D02*
X008563Y004105D01*
X008636Y004105D01*
X008673Y004069D01*
X008636Y003995D02*
X008600Y003995D01*
X007673Y003885D02*
X007526Y003885D01*
X007452Y003885D02*
X007305Y003885D01*
X007379Y003885D02*
X007379Y004105D01*
X007305Y004032D01*
X007231Y004069D02*
X007231Y003995D01*
X007195Y003959D01*
X007084Y003959D01*
X007084Y003885D02*
X007084Y004105D01*
X007195Y004105D01*
X007231Y004069D01*
X007526Y004032D02*
X007600Y004105D01*
X007600Y003885D01*
X006673Y003922D02*
X006673Y004069D01*
X006636Y004105D01*
X006563Y004105D01*
X006526Y004069D01*
X006526Y004032D01*
X006563Y003995D01*
X006673Y003995D01*
X006673Y003922D02*
X006636Y003885D01*
X006563Y003885D01*
X006526Y003922D01*
X006452Y003995D02*
X006416Y003959D01*
X006305Y003959D01*
X006305Y003885D02*
X006305Y004105D01*
X006416Y004105D01*
X006452Y004069D01*
X006452Y003995D01*
X005673Y004069D02*
X005526Y003922D01*
X005526Y003885D01*
X005452Y003995D02*
X005416Y003959D01*
X005305Y003959D01*
X005305Y003885D02*
X005305Y004105D01*
X005416Y004105D01*
X005452Y004069D01*
X005452Y003995D01*
X005526Y004105D02*
X005673Y004105D01*
X005673Y004069D01*
X004673Y004105D02*
X004526Y004105D01*
X004526Y003995D01*
X004600Y004032D01*
X004636Y004032D01*
X004673Y003995D01*
X004673Y003922D01*
X004636Y003885D01*
X004563Y003885D01*
X004526Y003922D01*
X004452Y003995D02*
X004416Y003959D01*
X004305Y003959D01*
X004305Y003885D02*
X004305Y004105D01*
X004416Y004105D01*
X004452Y004069D01*
X004452Y003995D01*
X003673Y003959D02*
X003673Y003922D01*
X003636Y003885D01*
X003563Y003885D01*
X003526Y003922D01*
X003452Y003995D02*
X003416Y003959D01*
X003305Y003959D01*
X003305Y003885D02*
X003305Y004105D01*
X003416Y004105D01*
X003452Y004069D01*
X003452Y003995D01*
X003526Y004069D02*
X003563Y004105D01*
X003636Y004105D01*
X003673Y004069D01*
X003673Y004032D01*
X003636Y003995D01*
X003673Y003959D01*
X003636Y003995D02*
X003600Y003995D01*
X002673Y003885D02*
X002526Y003885D01*
X002600Y003885D02*
X002600Y004105D01*
X002526Y004032D01*
X002452Y004069D02*
X002452Y003995D01*
X002416Y003959D01*
X002305Y003959D01*
X002305Y003885D02*
X002305Y004105D01*
X002416Y004105D01*
X002452Y004069D01*
X006507Y009113D02*
X006507Y009223D01*
X006544Y009260D01*
X006691Y009260D01*
X006727Y009223D01*
X006727Y009113D01*
X006507Y009113D01*
X006544Y009334D02*
X006507Y009371D01*
X006507Y009444D01*
X006544Y009481D01*
X006581Y009481D01*
X006727Y009334D01*
X006727Y009481D01*
X006727Y009464D02*
X006727Y009574D01*
X006691Y009611D01*
X006544Y009611D01*
X006507Y009574D01*
X006507Y009464D01*
X006727Y009464D01*
X006727Y009685D02*
X006727Y009832D01*
X006727Y009758D02*
X006507Y009758D01*
X006581Y009685D01*
X003836Y009462D02*
X003689Y009462D01*
X003763Y009462D02*
X003763Y009682D01*
X003689Y009609D01*
X003615Y009645D02*
X003578Y009682D01*
X003505Y009682D01*
X003468Y009645D01*
X003468Y009609D01*
X003505Y009572D01*
X003578Y009572D01*
X003615Y009535D01*
X003615Y009499D01*
X003578Y009462D01*
X003505Y009462D01*
X003468Y009499D01*
X003321Y009462D02*
X003321Y009682D01*
X003394Y009682D02*
X003247Y009682D01*
D11*
X006633Y009796D03*
X006633Y009501D03*
X006633Y009324D03*
X006633Y009029D03*
D12*
X006633Y009176D03*
X006633Y009649D03*
D13*
X004950Y009944D02*
X004950Y008487D01*
X002627Y008487D01*
X002627Y009944D01*
X004950Y009944D01*
X004379Y009708D02*
X004379Y008723D01*
X003198Y008723D01*
X003198Y009708D01*
X004379Y009708D01*
X003513Y009216D02*
X003515Y009249D01*
X003521Y009282D01*
X003531Y009314D01*
X003545Y009344D01*
X003562Y009373D01*
X003582Y009399D01*
X003606Y009423D01*
X003632Y009443D01*
X003661Y009460D01*
X003691Y009474D01*
X003723Y009484D01*
X003756Y009490D01*
X003789Y009492D01*
X003822Y009490D01*
X003855Y009484D01*
X003887Y009474D01*
X003917Y009460D01*
X003946Y009443D01*
X003972Y009423D01*
X003996Y009399D01*
X004016Y009373D01*
X004033Y009344D01*
X004047Y009314D01*
X004057Y009282D01*
X004063Y009249D01*
X004065Y009216D01*
X004063Y009183D01*
X004057Y009150D01*
X004047Y009118D01*
X004033Y009088D01*
X004016Y009059D01*
X003996Y009033D01*
X003972Y009009D01*
X003946Y008989D01*
X003917Y008972D01*
X003887Y008958D01*
X003855Y008948D01*
X003822Y008942D01*
X003789Y008940D01*
X003756Y008942D01*
X003723Y008948D01*
X003691Y008958D01*
X003661Y008972D01*
X003632Y008989D01*
X003606Y009009D01*
X003582Y009033D01*
X003562Y009059D01*
X003545Y009088D01*
X003531Y009118D01*
X003521Y009150D01*
X003515Y009183D01*
X003513Y009216D01*
X003641Y007966D02*
X006062Y007966D01*
X006062Y005544D01*
X003641Y005544D01*
X003641Y007966D01*
X003701Y005692D02*
X003703Y005711D01*
X003709Y005729D01*
X003719Y005745D01*
X003732Y005759D01*
X003748Y005770D01*
X003765Y005777D01*
X003784Y005780D01*
X003803Y005779D01*
X003822Y005774D01*
X003838Y005765D01*
X003853Y005753D01*
X003864Y005737D01*
X003872Y005720D01*
X003876Y005702D01*
X003876Y005682D01*
X003872Y005664D01*
X003864Y005647D01*
X003853Y005631D01*
X003838Y005619D01*
X003822Y005610D01*
X003803Y005605D01*
X003784Y005604D01*
X003765Y005607D01*
X003748Y005614D01*
X003732Y005625D01*
X003719Y005639D01*
X003709Y005655D01*
X003703Y005673D01*
X003701Y005692D01*
X008739Y006086D02*
X008739Y005137D01*
X008739Y004708D01*
X010708Y004708D01*
X010708Y006086D01*
X008739Y006086D01*
X009448Y005397D02*
X009645Y005397D01*
X009645Y005239D01*
X009802Y005239D02*
X009802Y005397D01*
X009999Y005397D01*
X009802Y005397D02*
X009802Y005554D01*
X009645Y005554D02*
X009645Y005397D01*
X008739Y005137D02*
X008739Y005129D01*
D14*
X006978Y004698D02*
X006978Y004048D01*
X006682Y004048D01*
X006682Y004698D01*
X006978Y004698D01*
X006972Y004657D02*
X006688Y004657D01*
X006688Y004090D02*
X006972Y004090D01*
X007794Y007247D02*
X007735Y007306D01*
X007735Y008763D01*
X007794Y008822D01*
X009251Y008822D01*
X009310Y008763D01*
X009310Y007306D01*
X009251Y007247D01*
X007794Y007247D01*
X008006Y008534D02*
X008008Y008542D01*
X008013Y008548D01*
X008021Y008551D01*
X008029Y008550D01*
X008036Y008545D01*
X008040Y008538D01*
X008040Y008530D01*
X008036Y008523D01*
X008029Y008518D01*
X008021Y008517D01*
X008013Y008520D01*
X008008Y008526D01*
X008006Y008534D01*
X010186Y008714D02*
X010186Y008064D01*
X010481Y008064D01*
X010481Y008714D01*
X010186Y008714D01*
X010192Y008672D02*
X010476Y008672D01*
X010476Y008105D02*
X010192Y008105D01*
X010609Y007877D02*
X011259Y007877D01*
X011259Y007582D01*
X010609Y007582D01*
X010609Y007877D01*
X010651Y007871D02*
X010651Y007588D01*
X011218Y007588D02*
X011218Y007871D01*
X011987Y008409D02*
X011987Y008704D01*
X012637Y008704D01*
X012637Y008409D01*
X011987Y008409D01*
X012029Y008414D02*
X012029Y008698D01*
X012596Y008698D02*
X012596Y008414D01*
X012509Y007267D02*
X013690Y007267D01*
X013690Y004353D01*
X012588Y004353D01*
X012588Y007227D01*
X012509Y007267D02*
X012509Y003645D01*
X013769Y003645D01*
X013769Y007267D01*
X013690Y007267D01*
X002287Y007507D02*
X002287Y004507D01*
X000710Y004507D01*
X000710Y007507D01*
X002287Y007507D01*
D15*
X003094Y005682D02*
X003079Y005667D01*
X003079Y005637D01*
X003094Y005622D01*
X003094Y005590D02*
X003079Y005575D01*
X003079Y005545D01*
X003094Y005530D01*
X003154Y005530D01*
X003169Y005545D01*
X003169Y005575D01*
X003154Y005590D01*
X003169Y005622D02*
X003109Y005682D01*
X003094Y005682D01*
X003169Y005682D02*
X003169Y005622D01*
X004034Y004474D02*
X003991Y004432D01*
X004023Y004400D01*
X004034Y004432D01*
X004044Y004442D01*
X004066Y004442D01*
X004087Y004421D01*
X004087Y004400D01*
X004066Y004379D01*
X004045Y004379D01*
X004033Y004345D02*
X003990Y004345D01*
X004001Y004356D02*
X003969Y004324D01*
X003990Y004303D02*
X003926Y004367D01*
X003958Y004398D01*
X003979Y004398D01*
X004001Y004377D01*
X004001Y004356D01*
X002960Y004235D02*
X002900Y004235D01*
X002930Y004235D02*
X002930Y004325D01*
X002900Y004295D01*
X002868Y004310D02*
X002868Y004280D01*
X002853Y004265D01*
X002808Y004265D01*
X002838Y004265D02*
X002868Y004235D01*
X002808Y004235D02*
X002808Y004325D01*
X002853Y004325D01*
X002868Y004310D01*
X006297Y006321D02*
X006312Y006306D01*
X006372Y006306D01*
X006387Y006321D01*
X006387Y006351D01*
X006372Y006366D01*
X006387Y006398D02*
X006387Y006458D01*
X006387Y006428D02*
X006297Y006428D01*
X006327Y006398D01*
X006312Y006366D02*
X006297Y006351D01*
X006297Y006321D01*
X007724Y006734D02*
X007739Y006719D01*
X007799Y006719D01*
X007814Y006734D01*
X007814Y006764D01*
X007799Y006779D01*
X007799Y006811D02*
X007814Y006826D01*
X007814Y006856D01*
X007799Y006871D01*
X007769Y006871D01*
X007754Y006856D01*
X007754Y006841D01*
X007769Y006811D01*
X007724Y006811D01*
X007724Y006871D01*
X007754Y006903D02*
X007724Y006933D01*
X007814Y006933D01*
X007814Y006903D02*
X007814Y006963D01*
X007739Y006779D02*
X007724Y006764D01*
X007724Y006734D01*
X007435Y007506D02*
X007450Y007521D01*
X007450Y007551D01*
X007435Y007566D01*
X007405Y007598D02*
X007405Y007659D01*
X007390Y007691D02*
X007360Y007721D01*
X007450Y007721D01*
X007450Y007691D02*
X007450Y007751D01*
X007450Y007643D02*
X007360Y007643D01*
X007405Y007598D01*
X007375Y007566D02*
X007360Y007551D01*
X007360Y007521D01*
X007375Y007506D01*
X007435Y007506D01*
X007898Y008591D02*
X007948Y008591D01*
X007923Y008591D02*
X007923Y008741D01*
X007898Y008741D02*
X007948Y008741D01*
X007996Y008716D02*
X007996Y008616D01*
X008021Y008591D01*
X008071Y008591D01*
X008096Y008616D01*
X008143Y008591D02*
X008244Y008691D01*
X008244Y008716D01*
X008218Y008741D01*
X008168Y008741D01*
X008143Y008716D01*
X008096Y008716D02*
X008071Y008741D01*
X008021Y008741D01*
X007996Y008716D01*
X008143Y008591D02*
X008244Y008591D01*
X008244Y008978D02*
X008184Y008978D01*
X008214Y008978D02*
X008214Y009068D01*
X008184Y009038D01*
X008152Y009053D02*
X008137Y009068D01*
X008107Y009068D01*
X008092Y009053D01*
X008092Y008993D01*
X008107Y008978D01*
X008137Y008978D01*
X008152Y008993D01*
X008276Y008993D02*
X008276Y009008D01*
X008291Y009023D01*
X008321Y009023D01*
X008336Y009008D01*
X008336Y008993D01*
X008321Y008978D01*
X008291Y008978D01*
X008276Y008993D01*
X008291Y009023D02*
X008276Y009038D01*
X008276Y009053D01*
X008291Y009068D01*
X008321Y009068D01*
X008336Y009053D01*
X008336Y009038D01*
X008321Y009023D01*
X008368Y009038D02*
X008398Y009068D01*
X008398Y008978D01*
X008368Y008978D02*
X008428Y008978D01*
X008709Y009150D02*
X008709Y009195D01*
X008724Y009210D01*
X008754Y009210D01*
X008769Y009195D01*
X008769Y009150D01*
X008799Y009150D02*
X008709Y009150D01*
X008769Y009180D02*
X008799Y009210D01*
X008799Y009242D02*
X008799Y009302D01*
X008799Y009272D02*
X008709Y009272D01*
X008739Y009242D01*
X008709Y009334D02*
X008709Y009394D01*
X008724Y009394D01*
X008784Y009334D01*
X008799Y009334D01*
X008799Y009426D02*
X008799Y009486D01*
X008799Y009456D02*
X008709Y009456D01*
X008739Y009426D01*
X009196Y009192D02*
X009196Y009132D01*
X009211Y009117D01*
X009241Y009117D01*
X009256Y009132D01*
X009288Y009117D02*
X009348Y009117D01*
X009318Y009117D02*
X009318Y009207D01*
X009288Y009177D01*
X009256Y009192D02*
X009241Y009207D01*
X009211Y009207D01*
X009196Y009192D01*
X009380Y009207D02*
X009380Y009162D01*
X009410Y009177D01*
X009425Y009177D01*
X009440Y009162D01*
X009440Y009132D01*
X009425Y009117D01*
X009395Y009117D01*
X009380Y009132D01*
X009380Y009207D02*
X009440Y009207D01*
X009472Y009177D02*
X009502Y009207D01*
X009502Y009117D01*
X009472Y009117D02*
X009532Y009117D01*
X009556Y008817D02*
X009556Y008757D01*
X009556Y008787D02*
X009466Y008787D01*
X009496Y008757D01*
X009511Y008725D02*
X009511Y008665D01*
X009466Y008710D01*
X009556Y008710D01*
X009556Y008633D02*
X009556Y008573D01*
X009556Y008603D02*
X009466Y008603D01*
X009496Y008573D01*
X009481Y008541D02*
X009466Y008526D01*
X009466Y008496D01*
X009481Y008481D01*
X009541Y008481D01*
X009556Y008496D01*
X009556Y008526D01*
X009541Y008541D01*
X009673Y008183D02*
X009658Y008168D01*
X009658Y008108D01*
X009673Y008093D01*
X009703Y008093D01*
X009718Y008108D01*
X009750Y008093D02*
X009810Y008093D01*
X009780Y008093D02*
X009780Y008183D01*
X009750Y008153D01*
X009718Y008168D02*
X009703Y008183D01*
X009673Y008183D01*
X009842Y008168D02*
X009857Y008183D01*
X009887Y008183D01*
X009902Y008168D01*
X009902Y008153D01*
X009887Y008138D01*
X009902Y008123D01*
X009902Y008108D01*
X009887Y008093D01*
X009857Y008093D01*
X009842Y008108D01*
X009872Y008138D02*
X009887Y008138D01*
X009934Y008153D02*
X009964Y008183D01*
X009964Y008093D01*
X009934Y008093D02*
X009994Y008093D01*
X010228Y008157D02*
X010338Y008157D01*
X010338Y008231D01*
X010338Y008268D02*
X010338Y008341D01*
X010338Y008304D02*
X010228Y008304D01*
X010265Y008268D01*
X010246Y008378D02*
X010228Y008397D01*
X010228Y008433D01*
X010246Y008452D01*
X010265Y008452D01*
X010283Y008433D01*
X010301Y008452D01*
X010320Y008452D01*
X010338Y008433D01*
X010338Y008397D01*
X010320Y008378D01*
X010283Y008415D02*
X010283Y008433D01*
X010265Y008489D02*
X010228Y008525D01*
X010338Y008525D01*
X010338Y008489D02*
X010338Y008562D01*
X010800Y008198D02*
X010815Y008213D01*
X010845Y008213D01*
X010860Y008198D01*
X010892Y008183D02*
X010922Y008213D01*
X010922Y008123D01*
X010892Y008123D02*
X010952Y008123D01*
X010984Y008138D02*
X010999Y008123D01*
X011029Y008123D01*
X011044Y008138D01*
X011044Y008153D01*
X011029Y008168D01*
X011014Y008168D01*
X011029Y008168D02*
X011044Y008183D01*
X011044Y008198D01*
X011029Y008213D01*
X010999Y008213D01*
X010984Y008198D01*
X011076Y008198D02*
X011091Y008213D01*
X011121Y008213D01*
X011136Y008198D01*
X011136Y008183D01*
X011076Y008123D01*
X011136Y008123D01*
X010860Y008138D02*
X010845Y008123D01*
X010815Y008123D01*
X010800Y008138D01*
X010800Y008198D01*
X010734Y007734D02*
X010734Y007624D01*
X010807Y007624D01*
X010844Y007624D02*
X010918Y007624D01*
X010955Y007624D02*
X011028Y007697D01*
X011028Y007715D01*
X011010Y007734D01*
X010973Y007734D01*
X010955Y007715D01*
X010881Y007734D02*
X010881Y007624D01*
X010955Y007624D02*
X011028Y007624D01*
X011065Y007624D02*
X011139Y007624D01*
X011102Y007624D02*
X011102Y007734D01*
X011065Y007697D01*
X010881Y007734D02*
X010844Y007697D01*
X010324Y007701D02*
X010324Y007641D01*
X010264Y007701D01*
X010249Y007701D01*
X010234Y007686D01*
X010234Y007656D01*
X010249Y007641D01*
X010234Y007579D02*
X010324Y007579D01*
X010324Y007549D02*
X010324Y007609D01*
X010264Y007549D02*
X010234Y007579D01*
X010249Y007517D02*
X010234Y007502D01*
X010234Y007472D01*
X010249Y007457D01*
X010309Y007457D01*
X010324Y007472D01*
X010324Y007502D01*
X010309Y007517D01*
X010324Y007733D02*
X010264Y007793D01*
X010249Y007793D01*
X010234Y007778D01*
X010234Y007748D01*
X010249Y007733D01*
X010324Y007733D02*
X010324Y007793D01*
X009905Y007689D02*
X009845Y007689D01*
X009875Y007689D02*
X009875Y007779D01*
X009845Y007749D01*
X009813Y007749D02*
X009753Y007689D01*
X009813Y007689D01*
X009813Y007749D02*
X009813Y007764D01*
X009798Y007779D01*
X009768Y007779D01*
X009753Y007764D01*
X009691Y007779D02*
X009691Y007689D01*
X009661Y007689D02*
X009721Y007689D01*
X009661Y007749D02*
X009691Y007779D01*
X009629Y007764D02*
X009614Y007779D01*
X009584Y007779D01*
X009569Y007764D01*
X009569Y007704D01*
X009584Y007689D01*
X009614Y007689D01*
X009629Y007704D01*
X009666Y007359D02*
X009666Y007299D01*
X009666Y007329D02*
X009576Y007329D01*
X009606Y007299D01*
X009666Y007267D02*
X009666Y007207D01*
X009666Y007237D02*
X009576Y007237D01*
X009606Y007207D01*
X009666Y007175D02*
X009666Y007115D01*
X009666Y007145D02*
X009576Y007145D01*
X009606Y007115D01*
X009591Y007083D02*
X009576Y007068D01*
X009576Y007038D01*
X009591Y007023D01*
X009651Y007023D01*
X009666Y007038D01*
X009666Y007068D01*
X009651Y007083D01*
X008819Y006907D02*
X008819Y006847D01*
X008819Y006877D02*
X008729Y006877D01*
X008759Y006847D01*
X008744Y006815D02*
X008729Y006800D01*
X008729Y006770D01*
X008744Y006755D01*
X008759Y006755D01*
X008774Y006770D01*
X008774Y006815D01*
X008804Y006815D02*
X008744Y006815D01*
X008804Y006815D02*
X008819Y006800D01*
X008819Y006770D01*
X008804Y006755D01*
X008804Y006723D02*
X008819Y006707D01*
X008819Y006677D01*
X008804Y006662D01*
X008744Y006662D01*
X008729Y006677D01*
X008729Y006707D01*
X008744Y006723D01*
X010298Y006377D02*
X010298Y006317D01*
X010313Y006302D01*
X010343Y006302D01*
X010358Y006317D01*
X010390Y006302D02*
X010450Y006302D01*
X010420Y006302D02*
X010420Y006392D01*
X010390Y006362D01*
X010358Y006377D02*
X010343Y006392D01*
X010313Y006392D01*
X010298Y006377D01*
X010482Y006377D02*
X010497Y006392D01*
X010527Y006392D01*
X010542Y006377D01*
X010482Y006317D01*
X010497Y006302D01*
X010527Y006302D01*
X010542Y006317D01*
X010542Y006377D01*
X010574Y006362D02*
X010604Y006392D01*
X010604Y006302D01*
X010574Y006302D02*
X010634Y006302D01*
X010482Y006317D02*
X010482Y006377D01*
X011511Y008065D02*
X011532Y008065D01*
X011553Y008086D01*
X011553Y008108D01*
X011586Y008120D02*
X011629Y008162D01*
X011608Y008141D02*
X011544Y008204D01*
X011544Y008162D01*
X011511Y008150D02*
X011489Y008150D01*
X011468Y008129D01*
X011468Y008108D01*
X011511Y008065D01*
X011651Y008185D02*
X011651Y008270D01*
X011641Y008280D01*
X011620Y008280D01*
X011598Y008259D01*
X011598Y008238D01*
X011651Y008185D02*
X011694Y008227D01*
X011706Y008260D02*
X011727Y008260D01*
X011748Y008282D01*
X011748Y008303D01*
X011738Y008313D01*
X011717Y008313D01*
X011685Y008282D01*
X011706Y008260D01*
X011685Y008282D02*
X011685Y008324D01*
X011695Y008356D01*
X012081Y008552D02*
X012154Y008552D01*
X012191Y008552D02*
X012265Y008552D01*
X012302Y008552D02*
X012375Y008625D01*
X012375Y008644D01*
X012357Y008662D01*
X012320Y008662D01*
X012302Y008644D01*
X012228Y008662D02*
X012228Y008552D01*
X012302Y008552D02*
X012375Y008552D01*
X012412Y008570D02*
X012430Y008552D01*
X012467Y008552D01*
X012486Y008570D01*
X012486Y008589D01*
X012467Y008607D01*
X012449Y008607D01*
X012467Y008607D02*
X012486Y008625D01*
X012486Y008644D01*
X012467Y008662D01*
X012430Y008662D01*
X012412Y008644D01*
X012228Y008662D02*
X012191Y008625D01*
X012081Y008662D02*
X012081Y008552D01*
X012597Y008898D02*
X012612Y008883D01*
X012673Y008883D01*
X012688Y008898D01*
X012688Y008928D01*
X012673Y008943D01*
X012688Y008975D02*
X012688Y009035D01*
X012688Y009005D02*
X012597Y009005D01*
X012627Y008975D01*
X012612Y008943D02*
X012597Y008928D01*
X012597Y008898D01*
X012612Y009067D02*
X012597Y009082D01*
X012597Y009112D01*
X012612Y009128D01*
X012627Y009128D01*
X012688Y009067D01*
X012688Y009128D01*
X012643Y009160D02*
X012643Y009220D01*
X012688Y009205D02*
X012597Y009205D01*
X012643Y009160D01*
X012042Y009015D02*
X012042Y009000D01*
X012027Y008985D01*
X012042Y008970D01*
X012042Y008955D01*
X012027Y008940D01*
X011997Y008940D01*
X011982Y008955D01*
X011950Y008940D02*
X011889Y008940D01*
X011950Y009000D01*
X011950Y009015D01*
X011934Y009030D01*
X011904Y009030D01*
X011889Y009015D01*
X011827Y009030D02*
X011827Y008940D01*
X011797Y008940D02*
X011857Y008940D01*
X011797Y009000D02*
X011827Y009030D01*
X011765Y009015D02*
X011750Y009030D01*
X011720Y009030D01*
X011705Y009015D01*
X011705Y008955D01*
X011720Y008940D01*
X011750Y008940D01*
X011765Y008955D01*
X011982Y009015D02*
X011997Y009030D01*
X012027Y009030D01*
X012042Y009015D01*
X012027Y008985D02*
X012012Y008985D01*
X013012Y008511D02*
X013012Y008490D01*
X013033Y008469D01*
X013055Y008469D01*
X013067Y008435D02*
X013109Y008393D01*
X013088Y008414D02*
X013151Y008478D01*
X013109Y008478D01*
X013097Y008511D02*
X013097Y008532D01*
X013076Y008554D01*
X013055Y008554D01*
X013012Y008511D01*
X013132Y008370D02*
X013217Y008370D01*
X013227Y008381D01*
X013227Y008402D01*
X013206Y008423D01*
X013185Y008423D01*
X013132Y008370D02*
X013174Y008328D01*
X013207Y008316D02*
X013207Y008295D01*
X013229Y008273D01*
X013250Y008273D01*
X013271Y008295D01*
X013271Y008316D01*
X013260Y008326D01*
X013229Y008337D01*
X013260Y008369D01*
X013303Y008326D01*
X009459Y004571D02*
X009459Y004481D01*
X009429Y004481D02*
X009489Y004481D01*
X009429Y004541D02*
X009459Y004571D01*
X009397Y004556D02*
X009397Y004541D01*
X009382Y004526D01*
X009352Y004526D01*
X009337Y004541D01*
X009337Y004556D01*
X009352Y004571D01*
X009382Y004571D01*
X009397Y004556D01*
X009382Y004526D02*
X009397Y004511D01*
X009397Y004496D01*
X009382Y004481D01*
X009352Y004481D01*
X009337Y004496D01*
X009337Y004511D01*
X009352Y004526D01*
X009305Y004496D02*
X009290Y004481D01*
X009260Y004481D01*
X009245Y004496D01*
X009245Y004556D01*
X009260Y004571D01*
X009290Y004571D01*
X009305Y004556D01*
X006834Y004325D02*
X006834Y004252D01*
X006761Y004325D01*
X006742Y004325D01*
X006724Y004307D01*
X006724Y004270D01*
X006742Y004252D01*
X006834Y004215D02*
X006834Y004142D01*
X006724Y004142D01*
X005933Y008663D02*
X005948Y008678D01*
X005948Y008693D01*
X005933Y008708D01*
X005888Y008708D01*
X005888Y008678D01*
X005903Y008663D01*
X005933Y008663D01*
X005888Y008708D02*
X005918Y008738D01*
X005948Y008753D01*
X005856Y008738D02*
X005856Y008708D01*
X005841Y008693D01*
X005796Y008693D01*
X005796Y008663D02*
X005796Y008753D01*
X005841Y008753D01*
X005856Y008738D01*
X005826Y008693D02*
X005856Y008663D01*
X005860Y009588D02*
X005800Y009588D01*
X005860Y009648D01*
X005860Y009663D01*
X005845Y009678D01*
X005815Y009678D01*
X005800Y009663D01*
X005768Y009663D02*
X005768Y009633D01*
X005752Y009618D01*
X005707Y009618D01*
X005707Y009588D02*
X005707Y009678D01*
X005752Y009678D01*
X005768Y009663D01*
X005737Y009618D02*
X005768Y009588D01*
D16*
X005897Y009588D02*
X005597Y009588D01*
X005597Y009788D01*
X005897Y009788D01*
X005897Y009588D01*
X005947Y009588D01*
X005947Y009788D01*
X005897Y009788D01*
X005597Y009788D02*
X005547Y009788D01*
X005547Y009588D01*
X005597Y009588D01*
X005636Y008863D02*
X005686Y008863D01*
X005686Y008663D01*
X005636Y008663D01*
X005636Y008863D01*
X005686Y008863D02*
X005986Y008863D01*
X005986Y008663D01*
X005686Y008663D01*
X005986Y008663D02*
X006036Y008663D01*
X006036Y008863D01*
X005986Y008863D01*
X007360Y007841D02*
X007560Y007841D01*
X007560Y007791D01*
X007360Y007791D01*
X007360Y007841D01*
X007360Y007791D02*
X007360Y007491D01*
X007560Y007491D01*
X007560Y007441D01*
X007360Y007441D01*
X007360Y007491D01*
X007560Y007491D02*
X007560Y007791D01*
X007724Y007053D02*
X007924Y007053D01*
X007924Y007003D01*
X007724Y007003D01*
X007724Y007053D01*
X007724Y007003D02*
X007724Y006703D01*
X007924Y006703D01*
X007924Y006653D01*
X007724Y006653D01*
X007724Y006703D01*
X007924Y006703D02*
X007924Y007003D01*
X008620Y006994D02*
X008820Y006994D01*
X008820Y006944D01*
X008620Y006944D01*
X008620Y006994D01*
X008620Y006944D02*
X008620Y006644D01*
X008820Y006644D01*
X008820Y006594D01*
X008620Y006594D01*
X008620Y006644D01*
X008820Y006644D02*
X008820Y006944D01*
X009466Y007047D02*
X009466Y007097D01*
X009666Y007097D01*
X009666Y007047D01*
X009466Y007047D01*
X009466Y007097D02*
X009466Y007397D01*
X009666Y007397D01*
X009666Y007097D01*
X009666Y007397D02*
X009666Y007447D01*
X009466Y007447D01*
X009466Y007397D01*
X009593Y007688D02*
X009593Y007888D01*
X009643Y007888D01*
X009643Y007688D01*
X009593Y007688D01*
X009643Y007688D02*
X009943Y007688D01*
X009943Y007888D01*
X009993Y007888D01*
X009993Y007688D01*
X009943Y007688D01*
X009943Y007888D02*
X009643Y007888D01*
X009643Y007984D02*
X009643Y008184D01*
X009943Y008184D01*
X009943Y007984D01*
X009643Y007984D01*
X009593Y007984D01*
X009593Y008184D01*
X009643Y008184D01*
X009666Y008415D02*
X009466Y008415D01*
X009466Y008465D01*
X009666Y008465D01*
X009666Y008415D01*
X009666Y008465D02*
X009666Y008765D01*
X009466Y008765D01*
X009466Y008815D01*
X009666Y008815D01*
X009666Y008765D01*
X009466Y008765D02*
X009466Y008465D01*
X009943Y008184D02*
X009993Y008184D01*
X009993Y007984D01*
X009943Y007984D01*
X010234Y007792D02*
X010434Y007792D01*
X010434Y007742D01*
X010234Y007742D01*
X010234Y007792D01*
X010234Y007742D02*
X010234Y007442D01*
X010434Y007442D01*
X010434Y007392D01*
X010234Y007392D01*
X010234Y007442D01*
X010434Y007442D02*
X010434Y007742D01*
X010734Y008013D02*
X010734Y008213D01*
X010784Y008213D01*
X010784Y008013D01*
X010734Y008013D01*
X010784Y008013D02*
X011084Y008013D01*
X011084Y008213D01*
X011134Y008213D01*
X011134Y008013D01*
X011084Y008013D01*
X011084Y008213D02*
X010784Y008213D01*
X011411Y008072D02*
X011552Y007931D01*
X011588Y007966D01*
X011446Y008107D01*
X011659Y008320D01*
X011800Y008178D01*
X011588Y007966D01*
X011446Y008107D02*
X011411Y008072D01*
X011659Y008320D02*
X011694Y008355D01*
X011835Y008213D01*
X011800Y008178D01*
X011690Y008830D02*
X011690Y009030D01*
X011990Y009030D01*
X011990Y008830D01*
X011690Y008830D01*
X011640Y008830D01*
X011640Y009030D01*
X011690Y009030D01*
X011990Y009030D02*
X012040Y009030D01*
X012040Y008830D01*
X011990Y008830D01*
X012488Y008907D02*
X012488Y008957D01*
X012688Y008957D01*
X012688Y008907D01*
X012488Y008907D01*
X012488Y008957D02*
X012488Y009257D01*
X012688Y009257D01*
X012688Y008957D01*
X012688Y009257D02*
X012688Y009307D01*
X012488Y009307D01*
X012488Y009257D01*
X013019Y008611D02*
X012878Y008469D01*
X012913Y008434D01*
X013054Y008575D01*
X013267Y008363D01*
X013125Y008222D01*
X012913Y008434D01*
X013054Y008575D02*
X013019Y008611D01*
X013267Y008363D02*
X013302Y008328D01*
X013160Y008186D01*
X013125Y008222D01*
X010632Y006392D02*
X010632Y006192D01*
X010582Y006192D01*
X010582Y006392D01*
X010632Y006392D01*
X010582Y006392D02*
X010282Y006392D01*
X010282Y006192D01*
X010232Y006192D01*
X010232Y006392D01*
X010282Y006392D01*
X010282Y006192D02*
X010582Y006192D01*
X009579Y004571D02*
X009529Y004571D01*
X009529Y004371D01*
X009229Y004371D01*
X009229Y004571D01*
X009529Y004571D01*
X009579Y004571D02*
X009579Y004371D01*
X009529Y004371D01*
X009229Y004371D02*
X009179Y004371D01*
X009179Y004571D01*
X009229Y004571D01*
X006497Y006240D02*
X006297Y006240D01*
X006297Y006290D01*
X006497Y006290D01*
X006497Y006240D01*
X006497Y006290D02*
X006497Y006590D01*
X006297Y006590D01*
X006297Y006640D01*
X006497Y006640D01*
X006497Y006590D01*
X006297Y006590D02*
X006297Y006290D01*
X004304Y004462D02*
X004269Y004426D01*
X004127Y004568D01*
X004163Y004603D01*
X004304Y004462D01*
X004269Y004426D02*
X004057Y004214D01*
X003915Y004356D01*
X004127Y004568D01*
X003915Y004356D02*
X003880Y004320D01*
X004021Y004179D01*
X004057Y004214D01*
X003142Y004125D02*
X003092Y004125D01*
X003092Y004325D01*
X003142Y004325D01*
X003142Y004125D01*
X003092Y004125D02*
X002792Y004125D01*
X002792Y004325D01*
X003092Y004325D01*
X002792Y004325D02*
X002742Y004325D01*
X002742Y004125D01*
X002792Y004125D01*
X003078Y005464D02*
X003278Y005464D01*
X003278Y005514D01*
X003078Y005514D01*
X003078Y005814D01*
X003278Y005814D01*
X003278Y005514D01*
X003078Y005514D02*
X003078Y005464D01*
X003078Y005814D02*
X003078Y005864D01*
X003278Y005864D01*
X003278Y005814D01*
X008116Y008978D02*
X008116Y009178D01*
X008166Y009178D01*
X008166Y008978D01*
X008116Y008978D01*
X008166Y008978D02*
X008466Y008978D01*
X008466Y009178D01*
X008516Y009178D01*
X008516Y008978D01*
X008466Y008978D01*
X008466Y009178D02*
X008166Y009178D01*
X008708Y009134D02*
X008908Y009134D01*
X008908Y009084D01*
X008708Y009084D01*
X008708Y009134D01*
X008708Y009434D01*
X008908Y009434D01*
X008908Y009134D01*
X009130Y009207D02*
X009130Y009007D01*
X009180Y009007D01*
X009180Y009207D01*
X009480Y009207D01*
X009480Y009007D01*
X009180Y009007D01*
X009180Y009207D02*
X009130Y009207D01*
X008908Y009434D02*
X008908Y009484D01*
X008708Y009484D01*
X008708Y009434D01*
X009480Y009207D02*
X009530Y009207D01*
X009530Y009007D01*
X009480Y009007D01*
D17*
X009352Y005899D02*
X009255Y005899D01*
X009206Y005850D01*
X009105Y005850D02*
X009105Y005657D01*
X009057Y005609D01*
X008960Y005609D01*
X008912Y005657D01*
X008912Y005850D01*
X008960Y005899D01*
X009057Y005899D01*
X009105Y005850D01*
X009352Y005899D02*
X009400Y005850D01*
X009400Y005802D01*
X009206Y005609D01*
X009400Y005609D01*
X009105Y005609D02*
X009009Y005705D01*
X009057Y005229D02*
X008960Y005229D01*
X008912Y005181D01*
X009057Y005229D02*
X009105Y005181D01*
X009105Y005133D01*
X008912Y004939D01*
X009105Y004939D01*
X009206Y004988D02*
X009255Y004939D01*
X009352Y004939D01*
X009400Y004988D01*
X009400Y005036D01*
X009352Y005084D01*
X009206Y005084D01*
X009206Y004988D01*
X009206Y005084D02*
X009303Y005181D01*
X009400Y005229D01*
X009501Y005229D02*
X009598Y005133D01*
X009695Y005229D01*
X009695Y004939D01*
X009796Y004939D02*
X009796Y005229D01*
X009796Y005084D02*
X009989Y005084D01*
X010090Y005133D02*
X010284Y005133D01*
X010090Y004939D01*
X010284Y004939D01*
X009989Y004939D02*
X009989Y005229D01*
X009501Y005229D02*
X009501Y004939D01*
X003799Y009467D02*
X003605Y009467D01*
X003799Y009660D01*
X003799Y009709D01*
X003751Y009757D01*
X003654Y009757D01*
X003605Y009709D01*
X003504Y009709D02*
X003456Y009757D01*
X003359Y009757D01*
X003311Y009709D01*
X003311Y009660D01*
X003359Y009612D01*
X003456Y009612D01*
X003504Y009564D01*
X003504Y009515D01*
X003456Y009467D01*
X003359Y009467D01*
X003311Y009515D01*
X003113Y009467D02*
X003113Y009757D01*
X003016Y009757D02*
X003210Y009757D01*
X001951Y007121D02*
X001951Y006874D01*
X001951Y006998D02*
X001581Y006998D01*
X001704Y006874D01*
X001581Y006753D02*
X001581Y006506D01*
X001581Y006629D02*
X001951Y006629D01*
X001889Y006384D02*
X001951Y006323D01*
X001951Y006199D01*
X001889Y006137D01*
X001766Y006199D02*
X001766Y006323D01*
X001828Y006384D01*
X001889Y006384D01*
X001766Y006199D02*
X001704Y006137D01*
X001643Y006137D01*
X001581Y006199D01*
X001581Y006323D01*
X001643Y006384D01*
D18*
X013119Y006437D02*
X013119Y006130D01*
X013119Y006283D02*
X013580Y006283D01*
X013580Y005976D02*
X013119Y005976D01*
X013119Y005669D02*
X013580Y005976D01*
X013580Y005669D02*
X013119Y005669D01*
X013273Y005516D02*
X013580Y005516D01*
X013349Y005516D02*
X013349Y005209D01*
X013273Y005209D02*
X013119Y005362D01*
X013273Y005516D01*
X013273Y005209D02*
X013580Y005209D01*
X013580Y006590D02*
X013580Y006897D01*
X013580Y006744D02*
X013119Y006744D01*
X013273Y006590D01*
D19*
X002787Y006757D02*
X002287Y006757D01*
X002287Y006257D02*
X002787Y006257D01*
X002787Y005757D02*
X002287Y005757D01*
X002287Y005257D02*
X002787Y005257D01*
X002787Y004757D02*
X002287Y004757D01*
X002287Y007257D02*
X002787Y007257D01*
D20*
X003100Y009216D03*
X004478Y009216D03*
D21*
X005078Y009216D03*
X002499Y009216D03*
M02*
