%FSLAX42Y42*%
%MOMM*%
G71*
G01*
G75*
G04 Layer_Physical_Order=2*
G04 Layer_Color=16711680*
%ADD10R,1.00X1.10*%
%ADD11R,1.50X1.30*%
%ADD12R,0.60X2.00*%
%ADD13R,2.00X0.60*%
%ADD14R,1.30X1.55*%
%ADD15C,0.89*%
%ADD16C,0.51*%
%ADD17C,1.52*%
%ADD18C,1.80*%
%ADD19R,1.80X1.80*%
%ADD20C,2.00*%
%ADD21R,2.00X2.00*%
%ADD22C,1.20*%
G36*
X5917Y83D02*
X83D01*
Y6917D01*
X5917D01*
Y83D01*
D02*
G37*
%LPC*%
G36*
X3683Y1550D02*
Y1448D01*
X3785D01*
X3784Y1456D01*
X3771Y1488D01*
X3750Y1515D01*
X3723Y1536D01*
X3692Y1549D01*
X3683Y1550D01*
D02*
G37*
G36*
X3632D02*
X3624Y1549D01*
X3592Y1536D01*
X3565Y1515D01*
X3544Y1488D01*
X3531Y1456D01*
X3530Y1448D01*
X3632D01*
Y1550D01*
D02*
G37*
G36*
X5131Y2210D02*
X5028D01*
X5030Y2201D01*
X5043Y2170D01*
X5063Y2142D01*
X5091Y2122D01*
X5122Y2109D01*
X5131Y2107D01*
Y2210D01*
D02*
G37*
G36*
X5436Y2807D02*
X5334D01*
Y2704D01*
X5343Y2705D01*
X5374Y2719D01*
X5401Y2739D01*
X5422Y2767D01*
X5435Y2798D01*
X5436Y2807D01*
D02*
G37*
G36*
X5284Y2210D02*
X5182D01*
Y2107D01*
X5190Y2109D01*
X5222Y2122D01*
X5249Y2142D01*
X5270Y2170D01*
X5283Y2201D01*
X5284Y2210D01*
D02*
G37*
G36*
X4907Y737D02*
X4875Y734D01*
X4845Y725D01*
X4835Y719D01*
X4813Y732D01*
Y736D01*
X4493D01*
Y416D01*
X4813D01*
Y421D01*
X4835Y434D01*
X4845Y428D01*
X4875Y419D01*
X4907Y416D01*
X4938Y419D01*
X4968Y428D01*
X4996Y443D01*
X5020Y463D01*
X5040Y487D01*
X5055Y515D01*
X5064Y545D01*
X5068Y576D01*
X5064Y608D01*
X5055Y638D01*
X5040Y666D01*
X5020Y690D01*
X4996Y710D01*
X4968Y725D01*
X4938Y734D01*
X4907Y737D01*
D02*
G37*
G36*
X3540D02*
X3509Y734D01*
X3479Y725D01*
X3468Y719D01*
X3446Y732D01*
Y736D01*
X3126D01*
Y416D01*
X3446D01*
Y421D01*
X3468Y434D01*
X3479Y428D01*
X3509Y419D01*
X3540Y416D01*
X3571Y419D01*
X3602Y428D01*
X3629Y443D01*
X3654Y463D01*
X3674Y487D01*
X3689Y515D01*
X3698Y545D01*
X3701Y576D01*
X3698Y608D01*
X3689Y638D01*
X3674Y666D01*
X3654Y690D01*
X3629Y710D01*
X3602Y725D01*
X3571Y734D01*
X3540Y737D01*
D02*
G37*
G36*
X4221D02*
X4190Y734D01*
X4159Y725D01*
X4149Y719D01*
X4127Y732D01*
Y736D01*
X3807D01*
Y416D01*
X4127D01*
Y421D01*
X4149Y434D01*
X4159Y428D01*
X4190Y419D01*
X4221Y416D01*
X4252Y419D01*
X4283Y428D01*
X4310Y443D01*
X4335Y463D01*
X4355Y487D01*
X4370Y515D01*
X4379Y545D01*
X4382Y576D01*
X4379Y608D01*
X4370Y638D01*
X4355Y666D01*
X4335Y690D01*
X4310Y710D01*
X4283Y725D01*
X4252Y734D01*
X4221Y737D01*
D02*
G37*
G36*
X3785Y1397D02*
X3683D01*
Y1295D01*
X3692Y1296D01*
X3723Y1309D01*
X3750Y1330D01*
X3771Y1357D01*
X3784Y1388D01*
X3785Y1397D01*
D02*
G37*
G36*
X3632D02*
X3530D01*
X3531Y1388D01*
X3544Y1357D01*
X3565Y1330D01*
X3592Y1309D01*
X3624Y1296D01*
X3632Y1295D01*
Y1397D01*
D02*
G37*
G36*
X5060Y5164D02*
X4957D01*
X4958Y5155D01*
X4971Y5123D01*
X4992Y5096D01*
X5019Y5075D01*
X5051Y5062D01*
X5060Y5061D01*
Y5164D01*
D02*
G37*
G36*
X2896Y5287D02*
X2862Y5283D01*
X2835Y5272D01*
X1651D01*
X1621Y5268D01*
X1593Y5256D01*
X1569Y5238D01*
X1493Y5162D01*
X1475Y5138D01*
X1463Y5110D01*
X1459Y5080D01*
Y4674D01*
X1463Y4644D01*
X1475Y4616D01*
X1493Y4592D01*
X1590Y4495D01*
D01*
X1590D01*
X1590Y4495D01*
X1590Y4495D01*
X1590D01*
D01*
X1590D01*
X1590Y4495D01*
Y4495D01*
X1590Y4495D01*
Y4495D01*
X1614Y4477D01*
X1642Y4465D01*
X1671Y4461D01*
X1739D01*
X1741Y4436D01*
X1728Y4434D01*
X1719Y4431D01*
X1700Y4423D01*
X1676Y4405D01*
X1346Y4074D01*
X1319Y4063D01*
X1292Y4042D01*
X1271Y4015D01*
X1258Y3984D01*
X1253Y3950D01*
X1258Y3916D01*
X1271Y3884D01*
X1292Y3857D01*
X1319Y3836D01*
X1350Y3823D01*
X1384Y3819D01*
X1418Y3823D01*
X1450Y3836D01*
X1451Y3837D01*
X1473Y3824D01*
X1469Y3797D01*
X1474Y3763D01*
X1487Y3732D01*
X1507Y3705D01*
X1535Y3684D01*
X1566Y3671D01*
X1600Y3666D01*
X1634Y3671D01*
X1666Y3684D01*
X1672Y3689D01*
X1692Y3673D01*
X1689Y3666D01*
X1685Y3632D01*
X1689Y3598D01*
X1703Y3567D01*
X1723Y3539D01*
X1751Y3519D01*
X1782Y3506D01*
X1816Y3501D01*
X1850Y3506D01*
X1882Y3519D01*
X1909Y3539D01*
X1930Y3567D01*
X1941Y3594D01*
X2047Y3699D01*
X2193D01*
X2204Y3677D01*
X2187Y3656D01*
X2171Y3626D01*
X2161Y3594D01*
X2158Y3561D01*
X2161Y3528D01*
X2171Y3496D01*
X2187Y3466D01*
X2208Y3440D01*
Y3428D01*
X2187Y3402D01*
X2171Y3372D01*
X2161Y3340D01*
X2158Y3307D01*
X2161Y3274D01*
X2171Y3242D01*
X2187Y3212D01*
X2204Y3191D01*
X2193Y3168D01*
X2088D01*
X2058Y3164D01*
X2030Y3153D01*
X2006Y3135D01*
X1874Y3003D01*
X1856Y2979D01*
X1844Y2951D01*
X1840Y2921D01*
Y2337D01*
X1844Y2307D01*
X1856Y2279D01*
X1874Y2255D01*
X1874Y2255D01*
X1874Y2255D01*
X2027Y2103D01*
Y2103D01*
D01*
Y2103D01*
X2027Y2103D01*
D01*
D01*
X2027D01*
X2027Y2103D01*
Y2103D01*
X2027Y2103D01*
Y2103D01*
X2050Y2084D01*
X2078Y2073D01*
X2108Y2069D01*
X3137D01*
X3167Y2073D01*
X3195Y2084D01*
X3219Y2103D01*
Y2103D01*
X3219D01*
D01*
D01*
D01*
D01*
D01*
D01*
X3219D01*
D01*
X3219D01*
Y2103D01*
D01*
D01*
D01*
D01*
Y2103D01*
D01*
D01*
D01*
D01*
D01*
D01*
Y2103D01*
D01*
D01*
X3219D01*
D01*
D01*
D01*
D01*
D01*
X3264Y2149D01*
X3291Y2160D01*
X3319Y2181D01*
X3339Y2208D01*
X3352Y2239D01*
X3357Y2273D01*
X3352Y2307D01*
X3350Y2312D01*
X3365Y2333D01*
X3383D01*
X3410Y2322D01*
X3444Y2318D01*
X3478Y2322D01*
X3510Y2335D01*
X3537Y2356D01*
X3558Y2383D01*
X3571Y2415D01*
X3575Y2449D01*
X3571Y2483D01*
X3558Y2514D01*
X3537Y2541D01*
X3510Y2562D01*
X3478Y2575D01*
X3444Y2580D01*
X3410Y2575D01*
X3383Y2564D01*
X2755D01*
X2698Y2621D01*
Y2674D01*
X2703Y2678D01*
X2725Y2704D01*
X2741Y2734D01*
X2750Y2766D01*
X2754Y2799D01*
X2750Y2832D01*
X2741Y2864D01*
X2725Y2894D01*
X2703Y2920D01*
Y2932D01*
X2708Y2937D01*
X2830D01*
X2860Y2908D01*
X2871Y2881D01*
X2892Y2854D01*
X2919Y2833D01*
X2951Y2820D01*
X2984Y2815D01*
X3018Y2820D01*
X3050Y2833D01*
X3077Y2854D01*
X3098Y2881D01*
X3111Y2912D01*
X3116Y2946D01*
X3111Y2980D01*
X3098Y3012D01*
X3077Y3039D01*
X3050Y3060D01*
X3023Y3071D01*
X2960Y3135D01*
X2936Y3153D01*
X2908Y3164D01*
X2878Y3168D01*
X2719D01*
X2708Y3191D01*
X2725Y3212D01*
X2741Y3242D01*
X2750Y3274D01*
X2754Y3307D01*
X2750Y3340D01*
X2741Y3372D01*
X2725Y3402D01*
X2730Y3413D01*
X4366D01*
X4940Y2839D01*
Y2505D01*
X4945Y2467D01*
X4960Y2431D01*
X4984Y2401D01*
X5014Y2377D01*
X5050Y2362D01*
X5067Y2360D01*
X5073Y2336D01*
X5063Y2328D01*
X5043Y2301D01*
X5030Y2269D01*
X5028Y2261D01*
X5284D01*
X5283Y2269D01*
X5270Y2301D01*
X5249Y2328D01*
X5222Y2349D01*
X5190Y2362D01*
X5182Y2363D01*
X5175Y2388D01*
X5192Y2401D01*
X5216Y2431D01*
X5230Y2467D01*
X5235Y2505D01*
Y2699D01*
X5256Y2713D01*
X5275Y2705D01*
X5283Y2704D01*
Y2832D01*
Y2960D01*
X5275Y2959D01*
X5243Y2946D01*
X5243D01*
Y2946D01*
X5243Y2946D01*
X5225Y2952D01*
X5216Y2974D01*
X5216Y2974D01*
D01*
D01*
D01*
D01*
X5216Y2974D01*
D01*
D01*
Y2974D01*
D01*
X5216D01*
D01*
X5216D01*
D01*
D01*
X5192Y3005D01*
X4532Y3665D01*
X4501Y3689D01*
X4466Y3703D01*
X4427Y3708D01*
X2743D01*
X2730Y3730D01*
X2741Y3750D01*
X2750Y3782D01*
X2754Y3815D01*
X2750Y3848D01*
X2741Y3880D01*
X2725Y3910D01*
X2703Y3936D01*
Y3948D01*
X2708Y3953D01*
X3690D01*
X3717Y3942D01*
X3751Y3938D01*
X3785Y3942D01*
X3817Y3955D01*
X3844Y3976D01*
X3865Y4003D01*
X3878Y4035D01*
X3883Y4069D01*
X3878Y4103D01*
X3865Y4134D01*
X3844Y4162D01*
X3817Y4182D01*
X3785Y4196D01*
X3751Y4200D01*
X3759Y4207D01*
X4254D01*
X4281Y4196D01*
X4315Y4192D01*
X4349Y4196D01*
X4381Y4209D01*
X4408Y4230D01*
X4429Y4257D01*
X4442Y4289D01*
X4447Y4323D01*
X4442Y4357D01*
X4429Y4388D01*
X4408Y4416D01*
X4381Y4436D01*
X4349Y4450D01*
X4315Y4454D01*
X4281Y4450D01*
X4254Y4438D01*
X3190D01*
X3185Y4463D01*
X3185Y4463D01*
X3212Y4484D01*
X3233Y4511D01*
X3246Y4543D01*
X3250Y4577D01*
X3246Y4611D01*
X3233Y4642D01*
X3212Y4670D01*
X3185Y4690D01*
X3153Y4704D01*
X3119Y4708D01*
X3085Y4704D01*
X3058Y4692D01*
X2719D01*
X2708Y4715D01*
X2725Y4736D01*
X2741Y4766D01*
X2750Y4798D01*
X2751Y4806D01*
X2583D01*
Y4831D01*
X2557D01*
Y4999D01*
X2549Y4998D01*
X2517Y4989D01*
X2499Y5000D01*
Y5001D01*
X2159D01*
Y4978D01*
X1887D01*
X1849Y4973D01*
X1814Y4959D01*
X1783Y4935D01*
X1760Y4905D01*
X1745Y4869D01*
X1740Y4831D01*
X1745Y4793D01*
X1760Y4757D01*
X1783Y4727D01*
X1796Y4716D01*
X1788Y4692D01*
X1719D01*
X1690Y4721D01*
Y5032D01*
X1699Y5041D01*
X2835D01*
X2862Y5030D01*
X2896Y5025D01*
X2930Y5030D01*
X2961Y5043D01*
X2988Y5063D01*
X3009Y5091D01*
X3022Y5122D01*
X3027Y5156D01*
X3022Y5190D01*
X3009Y5222D01*
X2988Y5249D01*
X2961Y5270D01*
X2930Y5283D01*
X2896Y5287D01*
D02*
G37*
G36*
X2608Y4999D02*
Y4856D01*
X2751D01*
X2750Y4864D01*
X2741Y4896D01*
X2725Y4926D01*
X2703Y4952D01*
X2678Y4973D01*
X2648Y4989D01*
X2616Y4998D01*
X2608Y4999D01*
D02*
G37*
G36*
X5110Y5317D02*
Y5214D01*
X5213D01*
X5212Y5223D01*
X5198Y5255D01*
X5178Y5282D01*
X5150Y5303D01*
X5119Y5316D01*
X5110Y5317D01*
D02*
G37*
G36*
X5060D02*
X5051Y5316D01*
X5019Y5303D01*
X4992Y5282D01*
X4971Y5255D01*
X4958Y5223D01*
X4957Y5214D01*
X5060D01*
Y5317D01*
D02*
G37*
G36*
X5213Y5164D02*
X5110D01*
Y5061D01*
X5119Y5062D01*
X5150Y5075D01*
X5178Y5096D01*
X5198Y5123D01*
X5212Y5155D01*
X5213Y5164D01*
D02*
G37*
G36*
X5258Y3156D02*
X5155D01*
X5157Y3148D01*
X5170Y3116D01*
X5190Y3089D01*
X5218Y3068D01*
X5249Y3055D01*
X5258Y3054D01*
Y3156D01*
D02*
G37*
G36*
X5334Y2960D02*
Y2858D01*
X5436D01*
X5435Y2866D01*
X5422Y2898D01*
X5401Y2925D01*
X5374Y2946D01*
X5343Y2959D01*
X5334Y2960D01*
D02*
G37*
G36*
X5411Y3156D02*
X5309D01*
Y3054D01*
X5317Y3055D01*
X5349Y3068D01*
X5376Y3089D01*
X5397Y3116D01*
X5410Y3148D01*
X5411Y3156D01*
D02*
G37*
G36*
X5309Y3310D02*
Y3207D01*
X5411D01*
X5410Y3216D01*
X5397Y3247D01*
X5376Y3274D01*
X5349Y3295D01*
X5317Y3308D01*
X5309Y3310D01*
D02*
G37*
G36*
X5258D02*
X5249Y3308D01*
X5218Y3295D01*
X5190Y3274D01*
X5170Y3247D01*
X5157Y3216D01*
X5155Y3207D01*
X5258D01*
Y3310D01*
D02*
G37*
%LPD*%
G36*
X2204Y2915D02*
X2187Y2894D01*
X2171Y2864D01*
X2161Y2832D01*
X2158Y2799D01*
X2161Y2766D01*
X2171Y2734D01*
X2187Y2704D01*
X2208Y2678D01*
X2234Y2657D01*
X2263Y2641D01*
X2295Y2631D01*
X2329Y2628D01*
X2362Y2631D01*
X2394Y2641D01*
X2424Y2657D01*
X2444Y2674D01*
X2467Y2663D01*
Y2574D01*
X2471Y2544D01*
X2483Y2516D01*
X2501Y2492D01*
X2501Y2492D01*
X2501Y2492D01*
X2626Y2367D01*
Y2367D01*
Y2367D01*
X2626Y2367D01*
X2626D01*
X2626Y2367D01*
Y2367D01*
X2626Y2367D01*
Y2367D01*
X2650Y2349D01*
X2678Y2337D01*
X2708Y2333D01*
X3087D01*
X3093Y2324D01*
X3094Y2321D01*
X3080Y2300D01*
X2156D01*
X2071Y2385D01*
Y2873D01*
X2136Y2937D01*
X2193D01*
X2204Y2915D01*
D02*
G37*
D15*
X2708Y2449D02*
X3444D01*
X2583Y2574D02*
X2708Y2449D01*
X2108Y2184D02*
X3137D01*
X1956Y2337D02*
X2108Y2184D01*
X1956Y2337D02*
Y2921D01*
X2088Y3053D01*
X2329D01*
X1999Y3815D02*
X2329D01*
X1758Y4323D02*
X2329D01*
X1880Y4077D02*
X2350D01*
X2583Y3053D02*
X2878D01*
X2984Y2946D01*
X2583Y4323D02*
X4315D01*
X1384Y3950D02*
X1758Y4323D01*
X1600Y3797D02*
X1880Y4077D01*
X1816Y3632D02*
X1999Y3815D01*
X3137Y2184D02*
X3226Y2273D01*
X2583Y4069D02*
X3751D01*
X2583Y4577D02*
X3119D01*
X1671D02*
X2329D01*
X1575Y4674D02*
X1671Y4577D01*
X1575Y4674D02*
Y5080D01*
X1651Y5156D01*
X2896D01*
X2583Y2574D02*
Y2799D01*
D17*
Y3561D02*
X4427D01*
X5088Y2900D01*
Y2505D02*
Y2900D01*
X1887Y4831D02*
X2329D01*
D18*
X4907Y576D02*
D03*
X4221D02*
D03*
X3540D02*
D03*
D19*
X4653D02*
D03*
X3967D02*
D03*
X3286D02*
D03*
D20*
X2329Y3307D02*
D03*
X2583D02*
D03*
X2329Y2799D02*
D03*
X2583Y4831D02*
D03*
X2329Y4323D02*
D03*
X2583D02*
D03*
X2329Y4069D02*
D03*
Y3815D02*
D03*
X2583Y3561D02*
D03*
X2329Y3053D02*
D03*
X2583D02*
D03*
Y2799D02*
D03*
Y3815D02*
D03*
Y4577D02*
D03*
X2329D02*
D03*
Y3561D02*
D03*
X2583Y4069D02*
D03*
D21*
X2329Y4831D02*
D03*
D22*
X3444Y2449D02*
D03*
X3226Y2273D02*
D03*
X2984Y2946D02*
D03*
X4315Y4323D02*
D03*
X1384Y3950D02*
D03*
X1600Y3797D02*
D03*
X1816Y3632D02*
D03*
X3751Y4069D02*
D03*
X3119Y4577D02*
D03*
X2896Y5156D02*
D03*
X5088Y2900D02*
D03*
Y2505D02*
D03*
X1887Y4831D02*
D03*
X3073Y3561D02*
D03*
X5085Y5189D02*
D03*
X5283Y3182D02*
D03*
X5309Y2832D02*
D03*
X5156Y2235D02*
D03*
X3658Y1422D02*
D03*
M02*
