G75*
G70*
%OFA0B0*%
%FSLAX24Y24*%
%IPPOS*%
%LPD*%
%AMOC8*
5,1,8,0,0,1.08239X$1,22.5*
%
%ADD10C,0.0591*%
%ADD11C,0.0396*%
%ADD12C,0.0394*%
%ADD13C,0.0276*%
%ADD14C,0.0236*%
D10*
X002507Y002507D03*
X003507Y002507D03*
X004507Y002507D03*
X005507Y002507D03*
X006507Y002507D03*
X007507Y002507D03*
X008507Y002507D03*
X009507Y002507D03*
X010507Y002507D03*
X010507Y003507D03*
X009507Y003507D03*
X008507Y003507D03*
X007507Y003507D03*
X006507Y003507D03*
X005507Y003507D03*
X004507Y003507D03*
X003507Y003507D03*
X002507Y003507D03*
D11*
X002787Y004757D03*
X002787Y005257D03*
X002787Y005757D03*
X002787Y006257D03*
X002787Y006757D03*
X002787Y007257D03*
D12*
X003507Y007507D03*
X003507Y008507D03*
X002507Y008507D03*
X002507Y009507D03*
X003507Y009507D03*
X003507Y006507D03*
X003507Y005507D03*
X003507Y004507D03*
D13*
X003178Y005103D03*
X004291Y006314D03*
X004812Y006747D03*
X004320Y007220D03*
X006919Y006027D03*
X006948Y005003D03*
X006751Y002995D03*
X009497Y005377D03*
X009586Y005830D03*
X009871Y004964D03*
X009891Y004471D03*
X010383Y004462D03*
X010944Y004964D03*
X010944Y005761D03*
X010944Y006292D03*
X010934Y007316D03*
X012352Y008074D03*
X011289Y008920D03*
X011633Y009284D03*
X012243Y009304D03*
X012932Y009314D03*
X010737Y008664D03*
X010442Y009550D03*
X007785Y009068D03*
X007283Y009649D03*
X002972Y002995D03*
D14*
X002352Y004294D03*
X003789Y005220D03*
X004271Y004875D03*
X004478Y005160D03*
X005344Y004727D03*
X005481Y005072D03*
X005767Y004964D03*
X006013Y004737D03*
X006220Y004993D03*
X006544Y004983D03*
X006397Y005495D03*
X006692Y006283D03*
X007420Y006007D03*
X007863Y006204D03*
X008326Y005997D03*
X008084Y005758D03*
X008169Y005288D03*
X008218Y004954D03*
X007981Y004521D03*
X008277Y004403D03*
X007509Y004294D03*
X007470Y004599D03*
X007184Y004747D03*
X008720Y006283D03*
X009035Y006302D03*
X009566Y006735D03*
X009842Y006588D03*
X010334Y007060D03*
X009842Y009058D03*
X009517Y009432D03*
X008503Y009501D03*
X007667Y008733D03*
X007243Y008517D03*
X007480Y008310D03*
X007017Y008221D03*
X006712Y008792D03*
X006377Y008428D03*
X006052Y008162D03*
X006289Y007916D03*
X006367Y007621D03*
X005865Y008448D03*
X005403Y008458D03*
X005106Y008330D03*
X004822Y008495D03*
X004586Y008281D03*
X003848Y008812D03*
X003848Y009294D03*
X003011Y008221D03*
X002755Y008034D03*
X002735Y007700D03*
X003365Y007867D03*
X003176Y006716D03*
X005560Y009225D03*
X007460Y007139D03*
X007499Y006794D03*
M02*
