%
M48
M72
T01C0.0080
T02C0.0120
T03C0.0240
T04C0.0390
%
T01
X2352Y4294
X3789Y5220
X4271Y4875
X4478Y5160
X5344Y4727
X5481Y5072
X5767Y4964
X6013Y4737
X6220Y4993
X6544Y4983
X6397Y5495
X6692Y6283
X7420Y6007
X7863Y6204
X8326Y5997
X8084Y5758
X8169Y5288
X8218Y4954
X7981Y4521
X8277Y4403
X7509Y4294
X7470Y4599
X7184Y4747
X8720Y6283
X9035Y6302
X9566Y6735
X9842Y6588
X10334Y7060
X9842Y9058
X9517Y9432
X8503Y9501
X7667Y8733
X7243Y8517
X7480Y8310
X7017Y8221
X6712Y8792
X6377Y8428
X6052Y8162
X6289Y7916
X6367Y7621
X5865Y8448
X5403Y8458
X5106Y8330
X4822Y8495
X4586Y8281
X3848Y8812
X3848Y9294
X3011Y8221
X2755Y8034
X2735Y7700
X3365Y7867
X3176Y6716
X5560Y9225
X7460Y7139
X7499Y6794
T02
X6919Y6027
X6948Y5003
X4812Y6747
X4291Y6314
X4320Y7220
X3178Y5103
X2972Y2995
X6751Y2995
X9497Y5377
X9586Y5830
X9871Y4964
X9891Y4471
X10383Y4462
X10944Y4964
X10944Y5761
X10944Y6292
X10934Y7316
X12352Y8074
X11289Y8920
X11633Y9284
X12243Y9304
X12932Y9314
X10737Y8664
X10442Y9550
X8773Y8284
X8523Y8034
X8773Y7784
X8273Y7784
X8273Y8284
X7785Y9068
X7283Y9649
T03
X2787Y7257
X2787Y6757
X2787Y6257
X2787Y5757
X2787Y5257
X2787Y4757
T04
X2507Y2507
X3507Y2507
X4507Y2507
X5507Y2507
X6507Y2507
X7507Y2507
X8507Y2507
X9507Y2507
X10507Y2507
X10507Y3507
X9507Y3507
X8507Y3507
X7507Y3507
X6507Y3507
X5507Y3507
X4507Y3507
X3507Y3507
X2507Y3507
M30
