M48
;Layer_Color=9474304
;FILE_FORMAT=4:2
METRIC,LZ
;TYPE=PLATED
T1F00S00C0.60
T2F00S00C1.00
%
T01
X001384Y00395
X0016Y003797
X001816Y003632
X003073Y003561
X002984Y002946
X003226Y002273
X003444Y002449
X003658Y001422
X005156Y002235
X005088Y002505
Y0029
X005309Y002832
X005283Y003182
X004315Y004323
X003751Y004069
X003119Y004577
X002896Y005156
X005085Y005189
X001887Y004831
T02
X002329Y002799
Y003053
Y003307
Y003561
Y003815
Y004069
Y004323
X002583
Y004069
Y003815
Y003561
Y003307
Y003053
Y002799
X003286Y000576
X00354
X003967
X004221
X004653
X004907
X002583Y004577
Y004831
X002329
Y004577
M30
