%FSLAX42Y42*%
%MOMM*%
G71*
G01*
G75*
G04 Layer_Physical_Order=1*
G04 Layer_Color=255*
%ADD10R,1.00X1.10*%
%ADD11R,1.50X1.30*%
%ADD12R,0.60X2.00*%
%ADD13R,2.00X0.60*%
%ADD14R,1.30X1.55*%
%ADD15C,0.89*%
%ADD16C,0.51*%
%ADD17C,1.52*%
%ADD18C,1.80*%
%ADD19R,1.80X1.80*%
%ADD20C,2.00*%
%ADD21R,2.00X2.00*%
%ADD22C,1.20*%
G36*
X5917Y83D02*
X83D01*
Y6917D01*
X5917D01*
Y83D01*
D02*
G37*
%LPC*%
G36*
X4560Y5936D02*
X4290D01*
Y5641D01*
X4310D01*
Y5166D01*
X4290D01*
Y4871D01*
X4310D01*
Y4790D01*
X3713Y4194D01*
X3686Y4182D01*
X3659Y4162D01*
X3638Y4134D01*
X3626Y4107D01*
X3601Y4112D01*
Y4547D01*
X3601Y4547D01*
X3598Y4572D01*
X3589Y4595D01*
X3580Y4606D01*
X3573Y4615D01*
X3573Y4615D01*
X3026Y5162D01*
X3022Y5190D01*
X3009Y5222D01*
X2988Y5249D01*
X2961Y5270D01*
X2930Y5283D01*
X2896Y5287D01*
X2862Y5283D01*
X2830Y5270D01*
X2803Y5249D01*
X2782Y5222D01*
X2769Y5190D01*
X2764Y5156D01*
X2769Y5122D01*
X2782Y5091D01*
X2803Y5063D01*
X2830Y5043D01*
X2862Y5030D01*
X2890Y5026D01*
X3221Y4695D01*
X3204Y4675D01*
X3204D01*
X3185Y4690D01*
X3153Y4704D01*
X3119Y4708D01*
X3085Y4704D01*
X3054Y4690D01*
X3027Y4670D01*
X3006Y4642D01*
X2993Y4611D01*
X2988Y4577D01*
X2993Y4543D01*
X3006Y4511D01*
X3027Y4484D01*
X3054Y4463D01*
X3085Y4450D01*
X3114Y4447D01*
X3193Y4367D01*
Y3658D01*
X3169Y3650D01*
X3166Y3654D01*
X3139Y3674D01*
X3107Y3688D01*
X3099Y3689D01*
Y3561D01*
Y3433D01*
X3107Y3434D01*
X3139Y3447D01*
X3166Y3468D01*
X3169Y3472D01*
X3193Y3464D01*
Y3061D01*
X3193Y3061D01*
X3193D01*
X3196Y3036D01*
X3206Y3013D01*
X3221Y2993D01*
X3445Y2769D01*
X3435Y2746D01*
X3329D01*
X3299Y2742D01*
X3271Y2730D01*
X3247Y2712D01*
X3144Y2609D01*
X3126Y2585D01*
X3114Y2557D01*
X3110Y2527D01*
Y2342D01*
X3091Y2326D01*
X3081Y2328D01*
Y2858D01*
X3098Y2881D01*
X3111Y2912D01*
X3116Y2946D01*
X3111Y2980D01*
X3098Y3012D01*
X3077Y3039D01*
X3050Y3060D01*
X3018Y3073D01*
X2984Y3078D01*
X2951Y3073D01*
X2919Y3060D01*
X2892Y3039D01*
X2871Y3012D01*
X2858Y2980D01*
X2853Y2946D01*
X2858Y2912D01*
X2871Y2881D01*
X2888Y2858D01*
Y2223D01*
X2888Y2223D01*
X2888D01*
X2892Y2198D01*
X2901Y2174D01*
X2916Y2154D01*
X3056Y2015D01*
X3056Y2015D01*
X3067Y2006D01*
X3076Y1999D01*
X3083Y1997D01*
X3099Y1990D01*
X3124Y1987D01*
X4039D01*
X4064Y1990D01*
X4087Y1999D01*
X4107Y2015D01*
Y2015D01*
X4107D01*
D01*
D01*
D01*
D01*
D01*
D01*
X4107D01*
D01*
X4107D01*
Y2015D01*
D01*
D01*
D01*
D01*
Y2015D01*
D01*
D01*
D01*
D01*
D01*
D01*
Y2015D01*
D01*
D01*
X4107D01*
D01*
D01*
D01*
D01*
D01*
X4238Y2146D01*
X4238Y2146D01*
X4247Y2158D01*
X4254Y2166D01*
X4256Y2173D01*
X4263Y2190D01*
X4267Y2215D01*
Y2279D01*
X4270D01*
Y2361D01*
X4294Y2370D01*
X4397Y2267D01*
X4417Y2252D01*
X4440Y2242D01*
X4465Y2239D01*
X4465Y2239D01*
X4511D01*
Y2200D01*
X4801D01*
Y2210D01*
X5014D01*
X5014Y2210D01*
Y2210D01*
X5017Y2211D01*
X5031Y2197D01*
X5043Y2170D01*
X5063Y2142D01*
X5091Y2122D01*
X5122Y2109D01*
X5139Y2106D01*
X5147Y2082D01*
X4989Y1925D01*
X3666D01*
Y1954D01*
X3426D01*
Y1944D01*
X2982D01*
X2326Y2600D01*
X2329Y2628D01*
X2362Y2631D01*
X2394Y2641D01*
X2424Y2657D01*
X2449Y2678D01*
X2462D01*
X2488Y2657D01*
X2517Y2641D01*
X2549Y2631D01*
X2583Y2628D01*
X2616Y2631D01*
X2648Y2641D01*
X2678Y2657D01*
X2703Y2678D01*
X2725Y2704D01*
X2741Y2734D01*
X2750Y2766D01*
X2754Y2799D01*
X2750Y2832D01*
X2741Y2864D01*
X2725Y2894D01*
X2703Y2920D01*
Y2932D01*
X2725Y2958D01*
X2741Y2988D01*
X2750Y3020D01*
X2754Y3053D01*
X2750Y3086D01*
X2741Y3118D01*
X2725Y3148D01*
X2703Y3174D01*
Y3186D01*
X2725Y3212D01*
X2741Y3242D01*
X2750Y3274D01*
X2754Y3307D01*
X2750Y3340D01*
X2741Y3372D01*
X2725Y3402D01*
X2703Y3428D01*
Y3440D01*
X2725Y3466D01*
X2741Y3496D01*
X2750Y3528D01*
X2751Y3536D01*
X2583D01*
Y3586D01*
X2751D01*
X2750Y3594D01*
X2741Y3626D01*
X2725Y3656D01*
X2703Y3682D01*
Y3694D01*
X2725Y3720D01*
X2741Y3750D01*
X2750Y3782D01*
X2754Y3815D01*
X2750Y3848D01*
X2741Y3880D01*
X2725Y3910D01*
X2703Y3936D01*
Y3948D01*
X2725Y3974D01*
X2741Y4004D01*
X2750Y4036D01*
X2754Y4069D01*
X2750Y4102D01*
X2741Y4134D01*
X2725Y4164D01*
X2703Y4190D01*
Y4202D01*
X2725Y4228D01*
X2741Y4258D01*
X2750Y4290D01*
X2754Y4323D01*
X2750Y4356D01*
X2741Y4388D01*
X2725Y4418D01*
X2703Y4444D01*
Y4456D01*
X2725Y4482D01*
X2741Y4512D01*
X2750Y4544D01*
X2754Y4577D01*
X2750Y4610D01*
X2741Y4642D01*
X2725Y4672D01*
X2703Y4698D01*
Y4710D01*
X2725Y4736D01*
X2741Y4766D01*
X2750Y4798D01*
X2754Y4831D01*
X2750Y4864D01*
X2741Y4896D01*
X2725Y4926D01*
X2703Y4952D01*
X2678Y4973D01*
X2648Y4989D01*
X2616Y4998D01*
X2583Y5002D01*
X2549Y4998D01*
X2517Y4989D01*
X2499Y5000D01*
Y5001D01*
X2354D01*
Y4831D01*
X2329D01*
Y4806D01*
X2159D01*
Y4661D01*
X2160D01*
X2171Y4642D01*
X2161Y4610D01*
X2158Y4577D01*
X2161Y4544D01*
X2171Y4512D01*
X2187Y4482D01*
X2208Y4456D01*
Y4444D01*
X2187Y4418D01*
X2171Y4388D01*
X2161Y4356D01*
X2158Y4323D01*
X2161Y4290D01*
X2171Y4258D01*
X2187Y4228D01*
X2208Y4202D01*
Y4190D01*
X2187Y4164D01*
X2171Y4134D01*
X2161Y4102D01*
X2158Y4069D01*
X2161Y4036D01*
X2171Y4004D01*
X2187Y3974D01*
X2208Y3948D01*
Y3936D01*
X2187Y3910D01*
X2171Y3880D01*
X2161Y3848D01*
X2158Y3815D01*
X2161Y3782D01*
X2171Y3750D01*
X2187Y3720D01*
X2208Y3694D01*
Y3682D01*
X2187Y3656D01*
X2171Y3626D01*
X2161Y3594D01*
X2158Y3561D01*
X2161Y3528D01*
X2171Y3496D01*
X2187Y3466D01*
X2208Y3440D01*
Y3428D01*
X2187Y3402D01*
X2171Y3372D01*
X2161Y3340D01*
X2158Y3307D01*
X2161Y3274D01*
X2171Y3242D01*
X2187Y3212D01*
X2208Y3186D01*
Y3174D01*
X2187Y3148D01*
X2171Y3118D01*
X2161Y3086D01*
X2158Y3053D01*
X2161Y3020D01*
X2171Y2988D01*
X2187Y2958D01*
X2208Y2932D01*
Y2920D01*
X2187Y2894D01*
X2171Y2864D01*
X2161Y2832D01*
X2158Y2800D01*
X2153Y2798D01*
X2130Y2796D01*
X1932Y2994D01*
Y3571D01*
X1943Y3598D01*
X1947Y3632D01*
X1943Y3666D01*
X1930Y3698D01*
X1909Y3725D01*
X1882Y3746D01*
X1850Y3759D01*
X1816Y3763D01*
X1782Y3759D01*
X1751Y3746D01*
X1744Y3741D01*
X1724Y3756D01*
X1727Y3763D01*
X1731Y3797D01*
X1727Y3831D01*
X1714Y3863D01*
X1693Y3890D01*
X1666Y3911D01*
X1634Y3924D01*
X1600Y3928D01*
X1566Y3924D01*
X1535Y3911D01*
X1534Y3910D01*
X1512Y3923D01*
X1515Y3950D01*
X1511Y3984D01*
X1498Y4015D01*
X1477Y4042D01*
X1450Y4063D01*
X1418Y4076D01*
X1384Y4081D01*
X1350Y4076D01*
X1319Y4063D01*
X1292Y4042D01*
X1271Y4015D01*
X1258Y3984D01*
X1253Y3950D01*
X1258Y3916D01*
X1269Y3889D01*
Y2781D01*
X1273Y2751D01*
X1284Y2724D01*
X1303Y2700D01*
X1303Y2700D01*
X1303Y2700D01*
X2903Y1100D01*
Y921D01*
Y751D01*
X2907D01*
Y419D01*
X2911Y389D01*
X2923Y361D01*
X2941Y337D01*
X2941Y337D01*
X2941Y337D01*
X3055Y223D01*
X3079Y205D01*
X3107Y193D01*
X3137Y189D01*
X3861D01*
X3891Y193D01*
X3919Y205D01*
X3942Y223D01*
Y223D01*
X3942D01*
D01*
D01*
D01*
D01*
D01*
D01*
X3942D01*
D01*
X3942D01*
Y223D01*
D01*
D01*
D01*
D01*
Y223D01*
D01*
D01*
D01*
D01*
D01*
D01*
Y223D01*
D01*
D01*
X3942D01*
D01*
D01*
D01*
D01*
D01*
X4049Y329D01*
X4067Y353D01*
X4079Y381D01*
X4082Y411D01*
D01*
D01*
D01*
D01*
D01*
D01*
X4082D01*
D01*
D01*
D01*
Y411D01*
X4082Y411D01*
D01*
D01*
D01*
D01*
D01*
D01*
D01*
D01*
D01*
D01*
D01*
D01*
X4088Y416D01*
X4127D01*
Y421D01*
X4149Y434D01*
X4159Y428D01*
X4190Y419D01*
X4196Y418D01*
Y576D01*
Y735D01*
X4190Y734D01*
X4159Y725D01*
X4149Y719D01*
X4127Y732D01*
Y736D01*
X3807D01*
Y420D01*
X3641D01*
X3636Y430D01*
X3631Y444D01*
X3654Y463D01*
X3674Y487D01*
X3689Y515D01*
X3698Y545D01*
X3698Y551D01*
X3540D01*
Y576D01*
X3515D01*
Y735D01*
X3509Y734D01*
X3479Y725D01*
X3468Y719D01*
X3446Y732D01*
Y736D01*
X3406D01*
Y751D01*
X3406D01*
Y921D01*
Y1171D01*
X3402D01*
Y1172D01*
X3398Y1201D01*
X3398Y1201D01*
Y1201D01*
X3398D01*
X3398Y1201D01*
D01*
D01*
D01*
Y1201D01*
X3398D01*
D01*
X3398D01*
D01*
D01*
D01*
X3386Y1229D01*
X3368Y1253D01*
X2931Y1690D01*
X2934Y1713D01*
X3426D01*
Y1704D01*
Y1534D01*
X3430D01*
X3434Y1505D01*
X3446Y1477D01*
X3446Y1477D01*
X3446Y1477D01*
X3464Y1453D01*
X3533Y1384D01*
X3544Y1357D01*
X3565Y1330D01*
X3592Y1309D01*
X3624Y1296D01*
X3658Y1291D01*
X3692Y1296D01*
X3723Y1309D01*
X3750Y1330D01*
X3771Y1357D01*
X3784Y1388D01*
X3789Y1422D01*
X3784Y1456D01*
X3771Y1488D01*
X3750Y1515D01*
X3723Y1536D01*
X3696Y1547D01*
X3666Y1578D01*
Y1704D01*
Y1733D01*
X5029D01*
X5040Y1734D01*
X5051Y1711D01*
X4571Y1232D01*
X4553Y1208D01*
X4541Y1180D01*
X4540Y1171D01*
X4533D01*
Y921D01*
Y751D01*
D01*
Y751D01*
X4518Y736D01*
X4493D01*
Y416D01*
X4813D01*
Y421D01*
X4835Y434D01*
X4845Y428D01*
X4875Y419D01*
X4881Y418D01*
Y576D01*
Y735D01*
X4875Y734D01*
X4845Y725D01*
X4835Y719D01*
X4813Y732D01*
Y736D01*
X4773D01*
Y751D01*
X4773D01*
Y921D01*
Y1107D01*
X5746Y2080D01*
X5764Y2104D01*
X5776Y2131D01*
X5780Y2161D01*
Y3340D01*
X5776Y3370D01*
X5768Y3390D01*
X5764Y3398D01*
X5746Y3422D01*
X4763Y4405D01*
X4739Y4423D01*
Y4423D01*
X4739D01*
D01*
D01*
D01*
D01*
X4739D01*
Y4423D01*
D01*
D01*
X4739Y4423D01*
X4739Y4423D01*
X4739Y4423D01*
D01*
X4711Y4434D01*
X4681Y4438D01*
X4376D01*
X4349Y4450D01*
X4315Y4454D01*
X4310Y4464D01*
X4507Y4661D01*
X4507D01*
D01*
D01*
D01*
D01*
D01*
D01*
X4507D01*
D01*
X4507D01*
Y4661D01*
D01*
D01*
D01*
D01*
Y4661D01*
D01*
D01*
D01*
D01*
D01*
D01*
Y4661D01*
D01*
D01*
X4507D01*
D01*
D01*
D01*
D01*
X4507D01*
X4525Y4685D01*
X4537Y4713D01*
X4541Y4743D01*
Y4871D01*
X4560D01*
Y4903D01*
X4693D01*
Y4894D01*
X4933D01*
Y5064D01*
Y5074D01*
X5024D01*
X5051Y5062D01*
X5085Y5058D01*
X5119Y5062D01*
X5150Y5075D01*
X5178Y5096D01*
X5198Y5123D01*
X5212Y5155D01*
X5216Y5189D01*
X5212Y5223D01*
X5198Y5255D01*
X5178Y5282D01*
X5150Y5303D01*
X5119Y5316D01*
X5085Y5320D01*
X5051Y5316D01*
X5024Y5304D01*
X4933D01*
Y5445D01*
Y5648D01*
Y5818D01*
Y5918D01*
X4693D01*
Y5818D01*
Y5648D01*
Y5445D01*
Y5275D01*
Y5134D01*
X4560D01*
Y5166D01*
X4541D01*
Y5641D01*
X4560D01*
Y5936D01*
D02*
G37*
G36*
X3048Y3689D02*
X3039Y3688D01*
X3008Y3674D01*
X2981Y3654D01*
X2960Y3626D01*
X2947Y3595D01*
X2946Y3586D01*
X3048D01*
Y3689D01*
D02*
G37*
G36*
X1862Y4806D02*
X1760D01*
X1761Y4797D01*
X1774Y4765D01*
X1795Y4738D01*
X1822Y4717D01*
X1853Y4704D01*
X1862Y4703D01*
Y4806D01*
D02*
G37*
G36*
Y4959D02*
X1853Y4958D01*
X1822Y4944D01*
X1795Y4924D01*
X1774Y4896D01*
X1761Y4865D01*
X1760Y4856D01*
X1862D01*
Y4959D01*
D02*
G37*
G36*
X2015Y4806D02*
X1913D01*
Y4703D01*
X1921Y4704D01*
X1953Y4717D01*
X1980Y4738D01*
X2001Y4765D01*
X2014Y4797D01*
X2015Y4806D01*
D02*
G37*
G36*
X3048Y3536D02*
X2946D01*
X2947Y3527D01*
X2960Y3495D01*
X2981Y3468D01*
X3008Y3447D01*
X3039Y3434D01*
X3048Y3433D01*
Y3536D01*
D02*
G37*
G36*
X5065Y551D02*
X4932D01*
Y418D01*
X4938Y419D01*
X4968Y428D01*
X4996Y443D01*
X5020Y463D01*
X5040Y487D01*
X5055Y515D01*
X5064Y545D01*
X5065Y551D01*
D02*
G37*
G36*
X4379D02*
X4246D01*
Y418D01*
X4252Y419D01*
X4283Y428D01*
X4310Y443D01*
X4335Y463D01*
X4355Y487D01*
X4370Y515D01*
X4379Y545D01*
X4379Y551D01*
D02*
G37*
G36*
X3565Y735D02*
Y602D01*
X3698D01*
X3698Y608D01*
X3689Y638D01*
X3674Y666D01*
X3654Y690D01*
X3629Y710D01*
X3602Y725D01*
X3571Y734D01*
X3565Y735D01*
D02*
G37*
G36*
X4932D02*
Y602D01*
X5065D01*
X5064Y608D01*
X5055Y638D01*
X5040Y666D01*
X5020Y690D01*
X4996Y710D01*
X4968Y725D01*
X4938Y734D01*
X4932Y735D01*
D02*
G37*
G36*
X4246D02*
Y602D01*
X4379D01*
X4379Y608D01*
X4370Y638D01*
X4355Y666D01*
X4335Y690D01*
X4310Y710D01*
X4283Y725D01*
X4252Y734D01*
X4246Y735D01*
D02*
G37*
G36*
X4113Y5936D02*
X4003D01*
Y5814D01*
X4113D01*
Y5936D01*
D02*
G37*
G36*
X4788Y6068D02*
X4693D01*
Y5969D01*
X4788D01*
Y6068D01*
D02*
G37*
G36*
X4110Y5166D02*
X4001D01*
Y5044D01*
X4110D01*
Y5166D01*
D02*
G37*
G36*
X4113Y5763D02*
X4003D01*
Y5641D01*
X4113D01*
Y5763D01*
D02*
G37*
G36*
X3952D02*
X3843D01*
Y5641D01*
X3952D01*
Y5763D01*
D02*
G37*
G36*
Y5936D02*
X3843D01*
Y5814D01*
X3952D01*
Y5936D01*
D02*
G37*
G36*
X3950Y4993D02*
X3840D01*
Y4871D01*
X3950D01*
Y4993D01*
D02*
G37*
G36*
X2303Y5001D02*
X2159D01*
Y4856D01*
X2303D01*
Y5001D01*
D02*
G37*
G36*
X1913Y4959D02*
Y4856D01*
X2015D01*
X2014Y4865D01*
X2001Y4896D01*
X1980Y4924D01*
X1953Y4944D01*
X1921Y4958D01*
X1913Y4959D01*
D02*
G37*
G36*
X3950Y5166D02*
X3840D01*
Y5044D01*
X3950D01*
Y5166D01*
D02*
G37*
G36*
X4933Y6068D02*
X4839D01*
Y5969D01*
X4933D01*
Y6068D01*
D02*
G37*
G36*
X4110Y4993D02*
X4001D01*
Y4871D01*
X4110D01*
Y4993D01*
D02*
G37*
%LPD*%
G36*
X5257Y3332D02*
X5249Y3308D01*
X5218Y3295D01*
X5190Y3274D01*
X5170Y3247D01*
X5158Y3220D01*
X5124Y3186D01*
X5014D01*
Y3195D01*
X4801D01*
Y3205D01*
X4511D01*
Y3167D01*
X4465D01*
X4465Y3167D01*
X4440Y3163D01*
X4417Y3154D01*
X4397Y3138D01*
X4294Y3035D01*
X4270Y3045D01*
Y3106D01*
X4536Y3371D01*
X5218D01*
X5257Y3332D01*
D02*
G37*
G36*
X4186Y4308D02*
X4189Y4289D01*
X4202Y4257D01*
X4223Y4230D01*
X4250Y4209D01*
X4281Y4196D01*
X4315Y4192D01*
X4349Y4196D01*
X4376Y4207D01*
X4634D01*
X5254Y3587D01*
X5245Y3563D01*
X4496D01*
X4471Y3560D01*
X4448Y3550D01*
X4428Y3535D01*
X4102Y3210D01*
X4087Y3190D01*
X4077Y3167D01*
X4074Y3142D01*
Y3119D01*
X4070D01*
Y2999D01*
X3850D01*
Y2996D01*
X3783D01*
X3601Y3177D01*
Y4026D01*
X3626Y4031D01*
X3638Y4003D01*
X3659Y3976D01*
X3686Y3955D01*
X3717Y3942D01*
X3751Y3938D01*
X3785Y3942D01*
X3817Y3955D01*
X3844Y3976D01*
X3865Y4003D01*
X3876Y4030D01*
X4162Y4316D01*
X4186Y4308D01*
D02*
G37*
G36*
X5390Y2702D02*
Y2326D01*
X5309Y2245D01*
X5285Y2253D01*
X5283Y2269D01*
X5270Y2301D01*
X5249Y2328D01*
X5222Y2349D01*
X5195Y2360D01*
X5173Y2382D01*
X5174Y2407D01*
X5181Y2412D01*
X5201Y2439D01*
X5215Y2471D01*
X5216Y2479D01*
X5088D01*
Y2530D01*
X5216D01*
X5215Y2539D01*
X5201Y2570D01*
X5211Y2594D01*
X5211Y2594D01*
X5239Y2605D01*
X5263Y2623D01*
X5338Y2698D01*
X5338Y2698D01*
X5347Y2707D01*
X5369Y2716D01*
X5390Y2702D01*
D02*
G37*
G36*
X4070Y2279D02*
X4074D01*
Y2254D01*
X3999Y2179D01*
X3346D01*
X3335Y2202D01*
X3339Y2208D01*
X3352Y2239D01*
X3357Y2273D01*
X3352Y2307D01*
X3342Y2332D01*
X3354Y2342D01*
X3364Y2346D01*
X3379Y2335D01*
X3410Y2322D01*
X3444Y2318D01*
X3478Y2322D01*
X3505Y2333D01*
X3635D01*
X3664Y2337D01*
X3692Y2349D01*
X3697Y2352D01*
X3757D01*
X3782Y2356D01*
X3805Y2365D01*
X3825Y2381D01*
X3844Y2399D01*
X3850Y2399D01*
Y2399D01*
X4070D01*
Y2279D01*
D02*
G37*
D10*
X4653Y876D02*
D03*
Y1046D02*
D03*
X3286Y876D02*
D03*
Y1046D02*
D03*
X3023Y876D02*
D03*
Y1046D02*
D03*
X4894Y3070D02*
D03*
Y2900D02*
D03*
Y2335D02*
D03*
Y2505D02*
D03*
X3546Y1829D02*
D03*
Y1659D02*
D03*
X4813Y5943D02*
D03*
Y5773D02*
D03*
Y5570D02*
D03*
Y5400D02*
D03*
Y5019D02*
D03*
Y5189D02*
D03*
D11*
X4656Y3070D02*
D03*
Y2880D02*
D03*
Y2335D02*
D03*
Y2525D02*
D03*
D12*
X4170Y2949D02*
D03*
Y2449D02*
D03*
D13*
X4320Y2899D02*
D03*
Y2819D02*
D03*
Y2739D02*
D03*
Y2659D02*
D03*
Y2579D02*
D03*
Y2499D02*
D03*
X4020D02*
D03*
Y2579D02*
D03*
Y2659D02*
D03*
Y2739D02*
D03*
Y2819D02*
D03*
Y2899D02*
D03*
D14*
X3978Y5789D02*
D03*
X3975Y5019D02*
D03*
X4425D02*
D03*
Y5789D02*
D03*
D15*
X4653Y576D02*
Y876D01*
X3861Y305D02*
X3967Y411D01*
X3137Y305D02*
X3861D01*
X3023Y419D02*
X3137Y305D01*
X3023Y419D02*
Y876D01*
X3286Y576D02*
Y876D01*
X1384Y2781D02*
X3023Y1143D01*
X1600Y2858D02*
X3286Y1172D01*
X1384Y2781D02*
Y3950D01*
X1600Y2858D02*
Y3797D01*
X4656Y2525D02*
X4778D01*
X4798Y2505D01*
X4656Y2880D02*
X4760D01*
X4780Y2900D01*
X4813Y5570D02*
Y5773D01*
X3023Y1046D02*
Y1143D01*
X3286Y1046D02*
Y1172D01*
X3444Y2449D02*
X3635D01*
X1816Y2946D02*
Y3632D01*
Y2946D02*
X2934Y1829D01*
X3546D01*
X5194Y2718D02*
X5309Y2832D01*
X4894Y3070D02*
X5172D01*
X3329Y2630D02*
X3635D01*
X3226Y2527D02*
X3329Y2630D01*
X3226Y2311D02*
Y2527D01*
X4653Y1046D02*
Y1150D01*
X5664Y2161D01*
Y3340D01*
X4681Y4323D02*
X5664Y3340D01*
X4656Y3070D02*
X4894D01*
X3751Y4069D02*
X4425Y4743D01*
X4813Y5189D02*
Y5400D01*
X4798Y2505D02*
X5088D01*
X4780Y2900D02*
X5088D01*
X3967Y411D02*
Y576D01*
X4813Y5189D02*
X5085D01*
X4315Y4323D02*
X4681D01*
X5172Y3070D02*
X5283Y3182D01*
X4656Y2335D02*
X5057D01*
X5156Y2235D01*
X4648Y2705D02*
X5182D01*
X5256Y2780D01*
X3546Y1534D02*
Y1659D01*
Y1534D02*
X3658Y1422D01*
X4813Y5019D02*
X4813Y5019D01*
X4425Y5019D02*
X4813D01*
X4425Y4743D02*
Y5789D01*
D16*
X3809Y2579D02*
X4020D01*
X3758Y2630D02*
X3809Y2579D01*
X3635Y2630D02*
X3758D01*
X3809Y2499D02*
X4020D01*
X3757Y2449D02*
X3808Y2499D01*
X3635Y2449D02*
X3757D01*
X4170Y2215D02*
Y2449D01*
X4039Y2083D02*
X4170Y2215D01*
X3124Y2083D02*
X4039D01*
X2984Y2223D02*
X3124Y2083D01*
X2984Y2223D02*
Y2946D01*
X4170Y2949D02*
Y3142D01*
X4496Y3467D01*
X5258D01*
X5486Y3238D01*
Y2286D02*
Y3238D01*
X5029Y1829D02*
X5486Y2286D01*
X3546Y1829D02*
X5029D01*
X4320Y2739D02*
X4487D01*
X4521Y2705D01*
X4320Y2579D02*
X4482D01*
X4536Y2525D01*
X4656D01*
X4320Y2819D02*
X4458D01*
X4519Y2880D01*
X4656D01*
X4320Y2899D02*
Y2925D01*
X4465Y3070D01*
X4320Y2480D02*
Y2499D01*
Y2480D02*
X4465Y2335D01*
X3743Y2899D02*
X4020D01*
X3505Y3137D02*
X3743Y2899D01*
X3505Y3137D02*
Y4547D01*
X3531Y2819D02*
X4020D01*
X3289Y3061D02*
X3531Y2819D01*
X4465Y2335D02*
X4656D01*
X4465Y3070D02*
X4656D01*
X3289Y3061D02*
Y4407D01*
X2896Y5156D02*
X3505Y4547D01*
X3119Y4577D02*
X3289Y4407D01*
X4521Y2705D02*
X4648D01*
D17*
X3540Y576D02*
Y721D01*
X3683Y864D01*
X4102D01*
X4221Y745D01*
Y414D02*
X4331Y305D01*
X4801D01*
X4907Y411D01*
Y576D01*
X4221Y414D02*
Y745D01*
D18*
X4907Y576D02*
D03*
X4221D02*
D03*
X3540D02*
D03*
D19*
X4653D02*
D03*
X3967D02*
D03*
X3286D02*
D03*
D20*
X2329Y3307D02*
D03*
X2583D02*
D03*
X2329Y2799D02*
D03*
X2583Y4831D02*
D03*
X2329Y4323D02*
D03*
X2583D02*
D03*
X2329Y4069D02*
D03*
Y3815D02*
D03*
X2583Y3561D02*
D03*
X2329Y3053D02*
D03*
X2583D02*
D03*
Y2799D02*
D03*
Y3815D02*
D03*
Y4577D02*
D03*
X2329D02*
D03*
Y3561D02*
D03*
X2583Y4069D02*
D03*
D21*
X2329Y4831D02*
D03*
D22*
X3444Y2449D02*
D03*
X3226Y2273D02*
D03*
X2984Y2946D02*
D03*
X4315Y4323D02*
D03*
X1384Y3950D02*
D03*
X1600Y3797D02*
D03*
X1816Y3632D02*
D03*
X3751Y4069D02*
D03*
X3119Y4577D02*
D03*
X2896Y5156D02*
D03*
X5088Y2900D02*
D03*
Y2505D02*
D03*
X1887Y4831D02*
D03*
X3073Y3561D02*
D03*
X5085Y5189D02*
D03*
X5283Y3182D02*
D03*
X5309Y2832D02*
D03*
X5156Y2235D02*
D03*
X3658Y1422D02*
D03*
M02*
