M48
;Layer_Color=9474304
;FILE_FORMAT=4:2
METRIC,LZ
;TYPE=PLATED
T1F00S00C0.60
T2F00S00C1.00
%
T01
X00205Y003815
X00193Y004077
X001808Y004323
X002997
X003195Y004069
X003005Y003815
X003035Y002946
X003406Y0028
Y002449
X003226Y002311
X003787Y002279
Y00176
X004516Y002335
Y00307
X005097Y0029
Y002505
X003739Y003561
X004172Y003994
X003711Y005019
X003713Y005789
X002903Y004831
X00238Y005275
X00174Y005232
T02
X003337Y000576
X003591
X004018
X004272
X004704
X004958
X002633Y002799
X00238
Y003053
Y003307
Y003561
Y003815
Y004069
Y004323
X002633
Y004069
Y003815
Y003561
Y003307
Y003053
Y004577
Y004831
X00238
Y004577
M30
